<?xml version="1.0" encoding="UTF-8" standalone="no"?>
<svg
   xmlns:dc="http://purl.org/dc/elements/1.1/"
   xmlns:cc="http://creativecommons.org/ns#"
   xmlns:rdf="http://www.w3.org/1999/02/22-rdf-syntax-ns#"
   xmlns:svg="http://www.w3.org/2000/svg"
   xmlns="http://www.w3.org/2000/svg"
   xmlns:sodipodi="http://sodipodi.sourceforge.net/DTD/sodipodi-0.dtd"
   xmlns:inkscape="http://www.inkscape.org/namespaces/inkscape"
   fill="none"
   viewBox="0 0 256 56"
   version="1.1"
   id="svg2868"
   sodipodi:docname="logo.svg"
   inkscape:version="1.0.1 (c497b03c, 2020-09-10)">
  <metadata
     id="metadata2872">
    <rdf:RDF>
      <cc:Work
         rdf:about="">
        <dc:format>image/svg+xml</dc:format>
        <dc:type
           rdf:resource="http://purl.org/dc/dcmitype/StillImage" />
      </cc:Work>
    </rdf:RDF>
  </metadata>
  <sodipodi:namedview
     pagecolor="#ffffff"
     bordercolor="#666666"
     borderopacity="1"
     objecttolerance="10"
     gridtolerance="10"
     guidetolerance="10"
     inkscape:pageopacity="0"
     inkscape:pageshadow="2"
     inkscape:window-width="1613"
     inkscape:window-height="480"
     id="namedview2870"
     showgrid="false"
     inkscape:zoom="0.54291011"
     inkscape:cx="116.57919"
     inkscape:cy="-12.68735"
     inkscape:window-x="0"
     inkscape:window-y="25"
     inkscape:window-maximized="0"
     inkscape:current-layer="svg2868"
     inkscape:document-rotation="0" />
  <defs
     id="defs2866">
    <linearGradient
       id="paint0_linear"
       x1="24"
       y1="76"
       x2="26"
       y2="19.5"
       gradientUnits="userSpaceOnUse">
      <stop
         stop-color="#F231A5"
         id="stop2861" />
      <stop
         offset="1"
         stop-color="#FF66C2"
         id="stop2863" />
    </linearGradient>
  </defs>
  <g
     inkscape:export-ydpi="96"
     inkscape:export-xdpi="96"
     style="fill:#a7bccf;fill-opacity:1;stroke:none"
     transform="matrix(0.54324995,0,0,0.54324995,149.01012,1116.623)"
     id="g5502"
     inkscape:export-filename="E:\Filipe\PROJETOS\EDU-SOFTWARE\site\logo.png">
    <path
       inkscape:connector-curvature="0"
       style="opacity:1;fill:#a7bccf;fill-opacity:1;stroke:none;stroke-width:3.77953;stroke-linecap:butt;stroke-linejoin:miter;stroke-miterlimit:4;stroke-dasharray:none;stroke-opacity:1"
       d="m -969.29297,-7475.5508 c -0.29803,0 -0.53329,0.1554 -0.70312,0.4688 -0.16984,0.3133 -0.27398,0.7855 -0.30469,1.4199 -0.0614,1.2687 0.166,3.1863 0.72656,5.7851 0.86474,4.0094 1.98596,8.0438 3.31055,11.9942 1.32459,3.9504 2.8536,7.8171 4.53711,11.4883 1.68351,3.6711 3.52141,7.1468 5.46289,10.3183 1.94148,3.1716 3.98547,6.0386 6.08398,8.4903 1.23263,1.4401 2.63352,2.8995 4.15625,4.3496 1.52273,1.4501 3.16732,2.8909 4.89258,4.2968 3.45053,2.812 7.21982,5.4822 10.95508,7.793 3.73525,2.3108 7.43642,4.2621 10.75586,5.6387 1.65972,0.6883 3.22402,1.2338 4.64844,1.6074 1.42441,0.3736 2.709,0.5754 3.81054,0.5801 h 5.93164 l -5.93164,-3.957 v 0.039 c -2.49126,-1.5487 -5.00338,-3.2884 -7.50781,-5.1816 -2.50443,-1.8932 -5.00064,-3.9402 -7.45508,-6.1055 -2.45444,-2.1653 -4.86767,-4.4493 -7.20898,-6.8144 -2.34132,-2.3651 -4.61035,-4.8122 -6.77539,-7.3047 -2.16505,-2.4925 -4.22672,-5.0306 -6.15235,-7.5782 -1.92563,-2.5475 -3.71481,-5.1045 -5.33789,-7.6347 -1.62307,-2.5303 -3.07856,-5.034 -4.33594,-7.4746 -1.25737,-2.4406 -2.31795,-4.8172 -3.14648,-7.0957 -2.41635,-4.9083 -4.58213,-8.6866 -6.36328,-11.2364 -0.89058,-1.2748 -1.68498,-2.2412 -2.36524,-2.8906 -0.68025,-0.6494 -1.24799,-0.9805 -1.68359,-0.9805 z"
       id="path5482"
       transform="scale(0.26458333)" />
    <path
       inkscape:connector-curvature="0"
       style="opacity:1;fill:#a7bccf;fill-opacity:1;stroke:none;stroke-width:3.77953;stroke-linecap:butt;stroke-linejoin:miter;stroke-miterlimit:4;stroke-dasharray:none;stroke-opacity:1"
       d="m -969.29297,-7475.5508 v 0.016 c 0.4356,0 1.00334,0.3311 1.68359,0.9805 0.68026,0.6494 1.47466,1.6158 2.36524,2.8906 1.78115,2.5498 3.94693,6.3281 6.36328,11.2364 0.82853,2.2785 1.88911,4.6551 3.14648,7.0957 1.25738,2.4406 2.71287,4.9443 4.33594,7.4746 1.62308,2.5302 3.41226,5.0872 5.33789,7.6347 1.92563,2.5476 3.9873,5.0857 6.15235,7.5782 2.16504,2.4925 4.43407,4.9396 6.77539,7.3047 2.34131,2.3651 4.75454,4.6491 7.20898,6.8144 2.45444,2.1653 4.95065,4.2123 7.45508,6.1055 2.50443,1.8932 5.01655,3.6329 7.50781,5.1816 v -0.039 l 5.93164,3.957 h -5.93164 c -1.10154,0 -2.38613,-0.2065 -3.81054,-0.5801 -1.42442,-0.3736 -2.98872,-0.9191 -4.64844,-1.6074 -3.31944,-1.3766 -7.02061,-3.3279 -10.75586,-5.6387 -3.73526,-2.3108 -7.50455,-4.981 -10.95508,-7.793 -1.72526,-1.4059 -3.36985,-2.8467 -4.89258,-4.2968 -1.52273,-1.4501 -2.92362,-2.9095 -4.15625,-4.3496 -2.09851,-2.4517 -4.1425,-5.3187 -6.08398,-8.4903 -1.94148,-3.1715 -3.77938,-6.6472 -5.46289,-10.3183 -1.68351,-3.6712 -3.21252,-7.5379 -4.53711,-11.4883 -1.32459,-3.9504 -2.44581,-7.9848 -3.31055,-11.9942 -0.56056,-2.5988 -0.78798,-4.5164 -0.72656,-5.7851 0.0307,-0.6344 0.13485,-1.1066 0.30469,-1.4199 0.16983,-0.3134 0.40509,-0.4688 0.70312,-0.4688 z"
       id="path5484"
       transform="scale(0.26458333)" />
    <path
       inkscape:connector-curvature="0"
       style="opacity:1;fill:#a7bccf;fill-opacity:1;stroke:none;stroke-width:3.77953;stroke-linecap:butt;stroke-linejoin:miter;stroke-miterlimit:4;stroke-dasharray:none;stroke-opacity:1"
       d="m -956.2793,-7490.1602 c -0.39247,0.029 -0.69258,0.3158 -0.89258,0.8653 -0.20022,0.5501 -0.30057,1.3635 -0.29101,2.4394 0.0191,2.152 0.47401,5.36 1.43359,9.6407 0.54476,2.4301 1.44707,5.0632 2.63086,7.8125 1.18379,2.7492 2.65028,5.6134 4.32422,8.5039 1.67394,2.8905 3.55511,5.8084 5.57031,8.6621 2.0152,2.8537 4.16352,5.6442 6.3711,8.2832 2.20757,2.6389 4.47549,5.1249 6.72656,7.3711 2.25107,2.2462 4.48519,4.2523 6.63086,5.9277 2.14567,1.6755 4.20236,3.0206 6.09375,3.9473 0.94569,0.4633 1.85087,0.8216 2.70508,1.0644 0.85421,0.2428 1.65628,0.3711 2.40039,0.3711 0.47731,0 0.86203,-0.052 1.14648,-0.166 0.28445,-0.1135 0.46967,-0.288 0.54688,-0.5371 0.15441,-0.4982 -0.12,-1.2909 -0.88086,-2.4649 -0.76086,-1.1739 -2.00764,-2.7286 -3.79883,-4.7558 -1.79119,-2.0273 -4.12787,-4.5259 -7.06445,-7.584 -2.56641,-2.6728 -4.945,-5.3366 -7.16211,-8.0273 -2.21711,-2.6907 -4.27182,-5.4087 -6.18946,-8.1895 -1.91763,-2.7808 -3.69725,-5.6252 -5.36523,-8.5684 -1.66798,-2.9431 -3.22522,-5.9844 -4.69336,-9.1621 -1.19574,-2.588 -2.322,-4.8546 -3.36719,-6.7968 -1.04519,-1.9422 -2.00894,-3.5614 -2.8789,-4.8516 -0.86997,-1.2902 -1.64634,-2.2526 -2.31641,-2.8848 -0.66946,-0.6315 -1.23243,-0.9319 -1.67773,-0.9004 0,0 -0.002,0 -0.002,0 z"
       id="path5486"
       transform="scale(0.26458333)" />
    <path
       inkscape:connector-curvature="0"
       style="opacity:1;fill:#a7bccf;fill-opacity:1;stroke:none;stroke-width:3.77953;stroke-linecap:butt;stroke-linejoin:miter;stroke-miterlimit:4;stroke-dasharray:none;stroke-opacity:1"
       d="m -956.2793,-7490.1602 c 0,0 0.002,0 0.002,0 0.4453,-0.032 1.00827,0.2689 1.67773,0.9004 0.67007,0.6322 1.44644,1.5946 2.31641,2.8848 0.86996,1.2902 1.83371,2.9094 2.8789,4.8516 1.04519,1.9422 2.17145,4.2088 3.36719,6.7968 1.46814,3.1777 3.02538,6.219 4.69336,9.1621 1.66798,2.9432 3.4476,5.7876 5.36523,8.5684 1.91764,2.7808 3.97235,5.4988 6.18946,8.1895 2.21711,2.6907 4.5957,5.3545 7.16211,8.0273 2.93658,3.0581 5.27326,5.5567 7.06445,7.584 1.79119,2.0272 3.03797,3.5819 3.79883,4.7558 0.76086,1.174 1.03527,1.9667 0.88086,2.4649 -0.0772,0.2491 -0.26243,0.4236 -0.54688,0.5371 -0.28445,0.1135 -0.66917,0.166 -1.14648,0.166 -0.74411,0 -1.54618,-0.1283 -2.40039,-0.3711 -0.85421,-0.2428 -1.75939,-0.6011 -2.70508,-1.0644 -1.89139,-0.9267 -3.94808,-2.2718 -6.09375,-3.9473 -2.14567,-1.6754 -4.37979,-3.6815 -6.63086,-5.9277 -2.25107,-2.2462 -4.51899,-4.7322 -6.72656,-7.3711 -2.20758,-2.639 -4.3559,-5.4295 -6.3711,-8.2832 -2.0152,-2.8537 -3.89637,-5.7716 -5.57031,-8.6621 -1.67394,-2.8905 -3.14043,-5.7547 -4.32422,-8.5039 -1.18379,-2.7493 -2.0861,-5.3824 -2.63086,-7.8125 -0.95958,-4.2807 -1.41447,-7.4887 -1.43359,-9.6407 -0.01,-1.0759 0.0908,-1.8893 0.29101,-2.4394 0.2,-0.5495 0.50011,-0.8363 0.89258,-0.8653 z"
       id="path5488"
       transform="scale(0.26458333)" />
    <path
       inkscape:connector-curvature="0"
       style="opacity:1;fill:#a7bccf;fill-opacity:1;stroke:none;stroke-width:3.77953;stroke-linecap:butt;stroke-linejoin:miter;stroke-miterlimit:4;stroke-dasharray:none;stroke-opacity:1"
       d="m -707.05664,-7492.4492 c -0.25631,0 -0.75005,0.4551 -1.42383,1.2773 -0.67378,0.8223 -1.52629,2.0111 -2.5,3.4785 -1.94741,2.935 -4.37843,6.9839 -6.82031,11.4375 -4.01196,6.472 -8.01079,12.869 -12.16406,19.0743 -2.07664,3.1026 -4.19136,6.156 -6.36524,9.1484 -2.17387,2.9924 -4.40636,5.9223 -6.71875,8.7754 -2.31238,2.8531 -4.7051,5.6296 -7.19726,8.3144 -2.49217,2.6849 -5.08561,5.2781 -7.79883,7.7657 -2.71322,2.4875 -5.54594,4.8697 -8.52149,7.1308 -2.97555,2.2612 -6.09389,4.4024 -9.37304,6.4082 -2.1443,1.2641 -4.09224,2.6425 -5.50586,3.8457 -0.70681,0.6016 -1.27969,1.1592 -1.67578,1.6368 -0.39609,0.4775 -0.61719,0.8753 -0.61719,1.1562 0,0.3492 0.1299,0.61 0.38672,0.7852 0.25682,0.1751 0.64188,0.2635 1.15234,0.2656 1.02092,0 2.54616,-0.3361 4.5625,-1.0176 2.01634,-0.6814 4.5235,-1.7039 7.50977,-3.0625 2.98627,-1.3586 6.45015,-3.0527 10.38086,-5.0801 v 0 c 4.27322,-2.204 8.07407,-4.3841 11.52929,-6.6543 3.45523,-2.2702 6.56572,-4.632 9.46094,-7.1973 2.89522,-2.5653 5.57476,-5.3348 8.16797,-8.4238 2.59321,-3.0891 5.09924,-6.4963 7.64844,-10.3379 2.57575,-4.7354 4.46356,-8.1628 5.91797,-10.9199 1.4544,-2.7571 2.47556,-4.8444 3.31836,-6.9024 0.84279,-2.058 1.50713,-4.0865 2.24804,-6.7246 0.74092,-2.6381 1.55826,-5.8853 2.70703,-10.3828 0.97743,-3.7935 1.65819,-7.2418 1.96485,-9.7422 0.15332,-1.2502 0.21213,-2.2643 0.16992,-2.9648 -0.0422,-0.7006 -0.18705,-1.0879 -0.44336,-1.0879 z"
       id="path5490"
       transform="scale(0.26458333)" />
    <path
       inkscape:connector-curvature="0"
       style="opacity:1;fill:#a7bccf;fill-opacity:1;stroke:none;stroke-width:3.77953;stroke-linecap:butt;stroke-linejoin:miter;stroke-miterlimit:4;stroke-dasharray:none;stroke-opacity:1"
       d="m -707.05664,-7492.4492 c 0.25631,0 0.40115,0.3873 0.44336,1.0879 0.0422,0.7005 -0.0166,1.7146 -0.16992,2.9648 -0.30666,2.5004 -0.98742,5.9487 -1.96485,9.7422 -1.14877,4.4975 -1.96611,7.7447 -2.70703,10.3828 -0.74091,2.6381 -1.40525,4.6666 -2.24804,6.7246 -0.8428,2.058 -1.86396,4.1453 -3.31836,6.9024 -1.45441,2.7571 -3.34222,6.1845 -5.91797,10.9199 -2.5492,3.8416 -5.05523,7.2488 -7.64844,10.3379 -2.59321,3.089 -5.27275,5.8585 -8.16797,8.4238 -2.89522,2.5653 -6.00571,4.9271 -9.46094,7.1973 -3.45522,2.2702 -7.25607,4.4503 -11.52929,6.6543 v 0 c -3.93071,2.0274 -7.39459,3.7215 -10.38086,5.0801 -2.98627,1.3586 -5.49343,2.3811 -7.50977,3.0625 -2.01634,0.6815 -3.54158,1.0218 -4.5625,1.0176 -0.51046,0 -0.89552,-0.091 -1.15234,-0.2656 -0.25682,-0.1752 -0.38672,-0.436 -0.38672,-0.7852 0,-0.2809 0.2211,-0.6787 0.61719,-1.1562 0.39609,-0.4776 0.96897,-1.0352 1.67578,-1.6368 1.41362,-1.2032 3.36156,-2.5816 5.50586,-3.8457 3.27915,-2.0058 6.39749,-4.147 9.37304,-6.4082 2.97555,-2.2611 5.80827,-4.6433 8.52149,-7.1308 2.71322,-2.4876 5.30666,-5.0808 7.79883,-7.7657 2.49216,-2.6848 4.88488,-5.4613 7.19726,-8.3144 2.31239,-2.8531 4.54488,-5.783 6.71875,-8.7754 2.17388,-2.9924 4.2886,-6.0458 6.36524,-9.1484 4.15327,-6.2053 8.1521,-12.6023 12.16406,-19.0743 2.44188,-4.4536 4.8729,-8.5025 6.82031,-11.4375 0.97371,-1.4674 1.82622,-2.6562 2.5,-3.4785 0.67378,-0.8222 1.16752,-1.2773 1.42383,-1.2773 z"
       id="path5492"
       transform="scale(0.26458333)" />
    <path
       inkscape:connector-curvature="0"
       style="opacity:1;fill:#a7bccf;fill-opacity:1;stroke:none;stroke-width:3.77953;stroke-linecap:butt;stroke-linejoin:miter;stroke-miterlimit:4;stroke-dasharray:none;stroke-opacity:1"
       d="m -684.55078,-7504.0879 c -0.50941,-0.015 -1.03275,0.02 -1.57031,0.096 -1.17184,0.1678 -2.07925,0.3734 -2.77149,0.7461 -0.69224,0.3727 -1.16767,0.9116 -1.47461,1.7461 -0.30693,0.8345 -0.44502,1.9645 -0.46093,3.5176 -0.0159,1.553 0.0887,3.5301 0.26953,6.0586 0.14887,2.082 0.17228,4.0524 0.0527,5.9922 -0.11955,1.9397 -0.38026,3.8492 -0.80273,5.8066 -0.42248,1.9574 -1.00573,3.9628 -1.76563,6.0977 -0.7599,2.1348 -1.69825,4.3989 -2.83008,6.8711 -1.15892,2.4538 -2.60568,5.1509 -4.29101,8.0078 -1.68534,2.8568 -3.60823,5.8735 -5.7168,8.9629 -2.10857,3.0893 -4.40341,6.2528 -6.83203,9.4043 -2.42862,3.1514 -4.99122,6.2908 -7.63672,9.3339 -2.6455,3.0432 -5.37361,5.9895 -8.13281,8.7539 -2.7592,2.7645 -5.54863,5.3469 -8.31836,7.6622 -2.76973,2.3152 -5.52019,4.3629 -8.19727,6.0585 -2.67707,1.6957 -5.28242,3.0397 -7.76367,3.9454 -0.2887,-0.1792 -0.5216,-0.2423 -0.69726,-0.2012 -0.17567,0.041 -0.29371,0.1853 -0.34961,0.418 -0.11182,0.4653 0.0222,1.2863 0.42968,2.3457 0.24335,0.6342 0.54106,1.1547 0.89063,1.5605 0.34957,0.4058 0.75225,0.6956 1.20312,0.8711 0.45088,0.1755 0.9508,0.2365 1.49805,0.1797 0.54725,-0.057 1.1406,-0.2304 1.7793,-0.5215 7.59252,-2.7812 11.07177,-4.1996 13.96484,-5.4766 2.89307,-1.2769 5.19995,-2.4125 10.44922,-4.6269 5.40055,-2.0549 8.851,-3.4407 11.21875,-4.4961 2.36775,-1.0554 3.65352,-1.781 4.73047,-2.5176 1.07695,-0.7365 1.94451,-1.4838 3.47266,-2.582 1.52814,-1.0983 3.71616,-2.547 7.4375,-4.6875 3.93116,-2.2303 8.05002,-4.9274 12.08789,-7.8574 4.03786,-2.9301 7.99627,-6.0932 11.60546,-9.2539 3.6092,-3.1608 6.87048,-6.3196 9.51563,-9.2422 1.32258,-1.4613 2.48952,-2.8639 3.4707,-4.1778 0.98119,-1.3138 1.77479,-2.5387 2.34766,-3.6465 0.87349,-1.0552 1.61061,-2.137 2.22461,-3.2343 0.614,-1.0973 1.10527,-2.211 1.48633,-3.3282 0.38105,-1.1171 0.65348,-2.2385 0.82812,-3.3535 0.17465,-1.1149 0.25131,-2.2239 0.2461,-3.3144 -0.0104,-2.1812 -0.35321,-4.2914 -0.92383,-6.2422 -0.57063,-1.9509 -1.36864,-3.7417 -2.28711,-5.2852 -0.91848,-1.5435 -1.95775,-2.8397 -3.01172,-3.7988 -1.05397,-0.9591 -2.12249,-1.5816 -3.09961,-1.7793 -0.48856,-0.099 -0.95328,-0.091 -1.38281,0.033 -0.42954,0.1247 -0.82401,0.3679 -1.16797,0.7383 -0.34397,0.3704 -0.63925,0.8696 -0.8711,1.5078 -0.23184,0.6382 -0.40094,1.4156 -0.49414,2.3438 -0.006,0.8246 -0.5426,2.3831 -1.40429,4.2304 -0.86169,1.8473 -2.04814,3.9833 -3.35157,5.961 l -4.74023,7.1914 1.48242,-12.5137 c 0.20918,-1.7663 0.3241,-3.4679 0.34961,-5.0938 0.0255,-1.6258 -0.0383,-3.1754 -0.18555,-4.6386 -0.14726,-1.4632 -0.37835,-2.8407 -0.6875,-4.1192 -0.30914,-1.2785 -0.69612,-2.4595 -1.15625,-3.5312 -0.46012,-1.0717 -0.99158,-2.0342 -1.59179,-2.877 -0.60022,-0.8427 -1.26865,-1.5646 -1.99805,-2.1562 -0.7294,-0.5917 -1.52144,-1.0526 -2.36914,-1.3711 -0.8477,-0.3185 -1.75193,-0.4944 -2.70703,-0.5176 z"
       id="path5494"
       transform="scale(0.26458333)" />
    <path
       inkscape:connector-curvature="0"
       style="opacity:1;fill:#a7bccf;fill-opacity:1;stroke:none;stroke-width:3.77953;stroke-linecap:butt;stroke-linejoin:miter;stroke-miterlimit:4;stroke-dasharray:none;stroke-opacity:1"
       d="m -684.55078,-7504.0879 c 0.9551,0.023 1.85933,0.1991 2.70703,0.5176 0.8477,0.3185 1.63974,0.7794 2.36914,1.3711 0.7294,0.5916 1.39783,1.3135 1.99805,2.1562 0.60021,0.8428 1.13167,1.8053 1.59179,2.877 0.46013,1.0717 0.84711,2.2527 1.15625,3.5312 0.30915,1.2785 0.54024,2.656 0.6875,4.1192 0.14727,1.4632 0.21106,3.0128 0.18555,4.6386 -0.0255,1.6259 -0.14043,3.3275 -0.34961,5.0938 l -1.48242,12.5137 4.74023,-7.1914 c 1.30343,-1.9777 2.48988,-4.1137 3.35157,-5.961 0.86169,-1.8473 1.39862,-3.4058 1.40429,-4.2304 0.0932,-0.9282 0.2623,-1.7056 0.49414,-2.3438 0.23185,-0.6382 0.52713,-1.1374 0.8711,-1.5078 0.34396,-0.3704 0.73843,-0.6136 1.16797,-0.7383 0.42953,-0.1247 0.89425,-0.132 1.38281,-0.033 0.97712,0.1977 2.04564,0.8202 3.09961,1.7793 1.05397,0.9591 2.09324,2.2553 3.01172,3.7988 0.91847,1.5435 1.71648,3.3343 2.28711,5.2852 0.57062,1.9508 0.91339,4.061 0.92383,6.2422 0.005,1.0905 -0.0715,2.1995 -0.2461,3.3144 -0.17464,1.115 -0.44707,2.2364 -0.82812,3.3535 -0.38106,1.1172 -0.87233,2.2309 -1.48633,3.3282 -0.614,1.0973 -1.35112,2.1791 -2.22461,3.2343 -0.57287,1.1078 -1.36647,2.3327 -2.34766,3.6465 -0.98118,1.3139 -2.14812,2.7165 -3.4707,4.1778 -2.64515,2.9226 -5.90643,6.0814 -9.51563,9.2422 -3.60919,3.1607 -7.5676,6.3238 -11.60546,9.2539 -4.03787,2.93 -8.15673,5.6271 -12.08789,7.8574 -3.72134,2.1405 -5.90936,3.5892 -7.4375,4.6875 -1.52815,1.0982 -2.39571,1.8455 -3.47266,2.582 -1.07695,0.7366 -2.36272,1.4622 -4.73047,2.5176 -2.36775,1.0554 -5.8182,2.4412 -11.21875,4.4961 -5.24927,2.2144 -7.55615,3.35 -10.44922,4.6269 -2.89307,1.277 -6.37232,2.6954 -13.96484,5.4766 -0.6387,0.2911 -1.23205,0.4647 -1.7793,0.5215 -0.54725,0.057 -1.04717,0 -1.49805,-0.1797 -0.45087,-0.1755 -0.85355,-0.4653 -1.20312,-0.8711 -0.34957,-0.4058 -0.64728,-0.9263 -0.89063,-1.5605 -0.40747,-1.0594 -0.5415,-1.8804 -0.42968,-2.3457 0.0559,-0.2327 0.17394,-0.3769 0.34961,-0.418 0.17566,-0.041 0.40856,0.022 0.69726,0.2012 2.48125,-0.9057 5.0866,-2.2497 7.76367,-3.9454 2.67708,-1.6956 5.42754,-3.7433 8.19727,-6.0585 2.76973,-2.3153 5.55916,-4.8977 8.31836,-7.6622 2.7592,-2.7644 5.48731,-5.7107 8.13281,-8.7539 2.6455,-3.0431 5.2081,-6.1825 7.63672,-9.3339 2.42862,-3.1515 4.72346,-6.315 6.83203,-9.4043 2.10857,-3.0894 4.03146,-6.1061 5.7168,-8.9629 1.68533,-2.8569 3.13209,-5.554 4.29101,-8.0078 1.13183,-2.4722 2.07018,-4.7363 2.83008,-6.8711 0.7599,-2.1349 1.34315,-4.1403 1.76563,-6.0977 0.42247,-1.9574 0.68318,-3.8669 0.80273,-5.8066 0.11955,-1.9398 0.0961,-3.9102 -0.0527,-5.9922 -0.18083,-2.5285 -0.28545,-4.5056 -0.26953,-6.0586 0.0159,-1.5531 0.154,-2.6831 0.46093,-3.5176 0.30694,-0.8345 0.78237,-1.3734 1.47461,-1.7461 0.69224,-0.3727 1.59965,-0.5783 2.77149,-0.7461 0.53756,-0.076 1.0609,-0.1108 1.57031,-0.096 z"
       id="path5496"
       transform="scale(0.26458333)" />
    <path
       inkscape:connector-curvature="0"
       style="opacity:1;fill:#a7bccf;fill-opacity:1;stroke:none;stroke-width:3.77953;stroke-linecap:butt;stroke-linejoin:miter;stroke-miterlimit:4;stroke-dasharray:none;stroke-opacity:1"
       d="m -999.17773,-7504.3066 c -0.86917,0.01 -1.71697,0.1444 -2.54297,0.4043 -0.826,0.2598 -1.6302,0.6438 -2.4063,1.1523 -0.776,0.5085 -1.5249,1.1411 -2.2441,1.8965 -0.7192,0.7554 -1.4089,1.6341 -2.0644,2.6347 -0.8664,1.3221 -1.5293,2.4876 -2.004,3.6583 -0.4746,1.1706 -0.7601,2.3461 -0.8691,3.6835 -0.109,1.3375 -0.041,2.838 0.1895,4.6602 0.2307,1.8222 0.6234,3.9666 1.1679,6.5918 0.7053,3.4004 1.2536,6.5916 1.5684,8.9941 0.3147,2.4026 0.3959,4.0149 0.168,4.2598 -0.228,0.2447 -1.0392,-0.7749 -2.1622,-2.6152 -1.1229,-1.8404 -2.5576,-4.4997 -4.0332,-7.5371 -1.2656,-2.605 -2.2489,-4.5842 -3.0761,-6.0293 -0.8272,-1.4451 -1.4979,-2.3563 -2.1387,-2.8262 -0.3204,-0.2349 -0.6321,-0.361 -0.9531,-0.3867 -0.321,-0.026 -0.6508,0.049 -1.0039,0.209 -0.7063,0.3207 -1.5094,0.9912 -2.5332,1.9179 -0.7295,0.6602 -1.3632,1.4462 -1.9024,2.336 -0.5392,0.8898 -0.9823,1.8824 -1.332,2.957 -0.3498,1.0746 -0.6064,2.2307 -0.7676,3.4453 -0.1612,1.2147 -0.2276,2.489 -0.2012,3.7988 0.026,1.3099 0.1463,2.6554 0.3594,4.0157 0.2132,1.3602 0.519,2.7338 0.918,4.0996 0.3989,1.3658 0.8907,2.7242 1.4746,4.0508 0.5839,1.3265 1.2594,2.6227 2.0273,3.8652 1.1843,1.9162 2.646,3.8996 4.3536,5.9297 1.7075,2.0301 3.6613,4.1064 5.832,6.207 2.1707,2.1006 4.559,4.226 7.1328,6.3535 2.5738,2.1276 5.3333,4.2562 8.25,6.3672 2.91674,2.111 5.98981,4.2029 9.18945,6.2539 3.19964,2.051 6.52481,4.0623 9.94727,6.0098 3.42245,1.9475 6.94216,3.8323 10.52734,5.6328 3.58517,1.8005 7.23601,3.517 10.92383,5.1269 4.00426,1.7485 7.91855,3.3026 11.48242,4.5957 3.56387,1.2932 6.77873,2.3248 9.38281,3.0235 2.60408,0.6986 4.59777,1.0644 5.72266,1.0293 0.56244,-0.018 0.9067,-0.1342 1.00195,-0.3613 0.0953,-0.2272 -0.0592,-0.5635 -0.49609,-1.0176 -0.54977,-0.5711 -10.82547,-11.0986 -22.83594,-23.3926 -6.97497,-7.1398 -12.7115,-13.2106 -17.44922,-18.5508 -2.36886,-2.6701 -4.48747,-5.1586 -6.38672,-7.5058 -1.89925,-2.3473 -3.57891,-4.5531 -5.06836,-6.6621 -1.48944,-2.1091 -2.78828,-4.1207 -3.92773,-6.0762 -1.13945,-1.9556 -2.1195,-3.8555 -2.96875,-5.7422 -0.84926,-1.8868 -1.56864,-3.7614 -2.1875,-5.6641 -0.61887,-1.9026 -1.13766,-3.8327 -1.58594,-5.8359 -0.58888,-2.6315 -1.0255,-4.8025 -1.31055,-6.625 -0.28504,-1.8226 -0.41767,-3.2976 -0.39453,-4.543 0.0231,-1.2454 0.20142,-2.2601 0.53711,-3.1601 0.33569,-0.9 0.82788,-1.6863 1.48047,-2.4727 0.6725,-0.8102 1.17431,-1.4769 1.50391,-2.0527 0.3296,-0.5758 0.48783,-1.0593 0.4707,-1.4981 -0.0171,-0.4388 -0.20848,-0.8332 -0.57617,-1.2324 -0.36769,-0.3992 -0.91268,-0.8046 -1.63477,-1.2617 -1.13429,-0.7176 -2.25134,-1.2538 -3.3457,-1.6074 -1.09436,-0.3537 -2.16602,-0.5228 -3.20898,-0.5039 z"
       id="path5498"
       transform="scale(0.26458333)" />
    <path
       inkscape:connector-curvature="0"
       style="opacity:1;fill:#a7bccf;fill-opacity:1;stroke:none;stroke-width:3.77953;stroke-linecap:butt;stroke-linejoin:miter;stroke-miterlimit:4;stroke-dasharray:none;stroke-opacity:1"
       d="m -843.93164,-7742.4844 c -1.92432,-0.023 -3.86041,0.064 -5.79688,0.2656 -1.93646,0.2015 -3.87231,0.5171 -5.79687,0.9512 -1.92456,0.4341 -3.83795,0.9869 -5.72656,1.6621 -1.88862,0.6753 -3.75341,1.4716 -5.58203,2.3965 -0.87391,0.1829 -2.07331,0.7561 -3.51368,1.625 -1.44037,0.8689 -3.1208,2.0347 -4.95703,3.4063 -3.67246,2.7431 -7.96694,6.309 -12.19922,9.9629 -2.91477,3.2451 -6.10991,6.8364 -9.64453,11.082 -4.22366,4.2373 -8.20807,8.5346 -11.98633,12.8926 -3.77825,4.3579 -7.34908,8.7755 -10.74218,13.25 -3.3931,4.4745 -6.60954,9.0066 -9.67774,13.5937 -3.0682,4.5871 -5.98941,9.2301 -8.79297,13.9258 -1.57427,2.2476 -2.66104,4.0508 -3.2207,5.4629 -0.27983,0.706 -0.42712,1.3129 -0.4375,1.8301 -0.0104,0.5171 0.11516,0.9435 0.38477,1.2851 0.2696,0.3417 0.68206,0.5998 1.24218,0.7793 0.56012,0.1795 1.26774,0.2818 2.12891,0.3125 1.72234,0.061 4.05716,-0.1616 7.04688,-0.6152 2.79036,-0.4235 5.24753,-0.5562 7.2539,-0.457 2.00638,0.099 3.56222,0.4286 4.55469,0.9335 0.49623,0.2525 0.85113,0.549 1.05078,0.8809 0.19965,0.3319 0.24482,0.7009 0.11914,1.0977 -0.12568,0.3968 -0.42065,0.8225 -0.90039,1.2695 -0.47974,0.447 -1.14527,0.9138 -2.00781,1.3965 -2.46253,1.3782 -5.5105,3.4793 -8.83203,6.0254 -3.32154,2.5461 -6.915,5.5383 -10.47071,8.6972 -3.55571,3.159 -7.07322,6.4864 -10.23828,9.7032 -3.16506,3.2167 -5.97933,6.3235 -8.1289,9.0429 -1.60065,2.025 -3.08396,4.074 -4.45118,6.1485 -1.36721,2.0744 -2.61809,4.1736 -3.75195,6.2968 -1.13386,2.1233 -2.1502,4.27 -3.05078,6.4414 -0.90058,2.1715 -1.68419,4.3671 -2.35156,6.586 -0.66738,2.2189 -1.2181,4.4627 -1.65235,6.7285 -0.43424,2.2658 -0.75193,4.5533 -0.95312,6.8652 -0.20119,2.312 -0.2857,4.6484 -0.25391,7.0059 0.0318,2.3575 0.17866,4.7363 0.44336,7.1387 0.26471,2.4023 0.64699,4.8269 1.14453,7.2734 0.49754,2.4465 1.1115,4.9162 1.8418,7.4063 0.7303,2.49 1.57607,5.0002 2.53906,7.5332 0.96299,2.5329 2.04268,5.0869 3.23828,7.6621 1.19561,2.5751 2.50741,5.1724 3.93555,7.789 1.42814,2.6167 2.9722,5.2526 4.63281,7.9102 1.66061,2.6575 3.43708,5.3354 5.33008,8.0332 1.893,2.6978 3.90203,5.4169 6.02734,8.1543 7.93074,10.2138 11.86761,15.2873 14.02344,17.6055 1.07792,1.159 1.71055,1.6304 2.17578,1.7089 0.46523,0.079 0.7614,-0.2341 1.16797,-0.6406 0.19263,-0.1926 0.21118,-0.7045 0.0801,-1.4629 -0.1311,-0.7584 -0.41055,-1.7638 -0.81641,-2.9453 -0.81171,-2.363 -2.12528,-5.4293 -3.74218,-8.6289 -2.18386,-4.3215 -4.17917,-8.6842 -5.98047,-13.0469 -1.80131,-4.3627 -3.40707,-8.7268 -4.81446,-13.0527 -1.40738,-4.326 -2.61507,-8.613 -3.61718,-12.8242 -1.00211,-4.2112 -1.7993,-8.3468 -2.38477,-12.3653 -0.58547,-4.0184 -0.95971,-7.9202 -1.11719,-11.6679 -0.15747,-3.7478 -0.0983,-7.3412 0.1836,-10.7403 0.28189,-3.3991 0.78691,-6.6037 1.51953,-9.5761 0.73261,-2.9725 1.69202,-5.7119 2.88672,-8.1797 0.89388,-1.8466 1.90158,-3.614 3.05664,-5.3242 1.15506,-1.7103 2.45746,-3.365 3.94726,-4.9883 1.48981,-1.6234 3.16634,-3.215 5.06446,-4.8008 1.89811,-1.5858 4.01844,-3.1641 6.39843,-4.7617 2.38,-1.5977 5.01965,-3.2142 7.95508,-4.8731 2.93544,-1.6588 6.16602,-3.3613 9.73047,-5.1308 7.1289,-3.539 15.58942,-7.3473 25.67578,-11.625 5.00233,-2.1216 9.34073,-3.979 13.1836,-5.5684 3.84287,-1.5894 7.19038,-2.9122 10.21679,-3.9629 3.02642,-1.0507 5.73025,-1.8306 8.28321,-2.3359 2.55295,-0.5053 4.95641,-0.7361 7.3789,-0.6895 2.4225,0.047 4.86497,0.3713 7.5,0.9766 2.63504,0.6053 5.46178,1.4916 8.65235,2.6621 6.38114,2.3409 14.21568,5.8196 24.87695,10.4609 6.39599,2.7846 12.30838,5.5501 17.75781,8.3204 5.44943,2.7702 10.43614,5.5444 14.98047,8.3437 4.54433,2.7993 8.64741,5.6244 12.32813,8.4961 3.68071,2.8717 6.94026,5.7899 9.79882,8.7773 1.42928,1.4938 2.75872,3.0044 3.99024,4.5352 1.23152,1.5308 2.36535,3.081 3.4043,4.6543 1.03894,1.5733 1.98243,3.1698 2.83398,4.791 0.85155,1.6212 1.60996,3.2669 2.2793,4.9414 0.66934,1.6745 1.24987,3.3781 1.74218,5.1113 0.49232,1.7333 0.89633,3.4976 1.2168,5.295 0.32048,1.7973 0.55712,3.6272 0.71094,5.4941 0.15382,1.867 0.22445,3.771 0.2168,5.7129 -0.0138,3.4843 -0.20899,6.2927 -0.5879,8.4297 -0.18945,1.0685 -0.42393,1.9691 -0.70507,2.7012 -0.28115,0.732 -0.60931,1.2954 -0.98243,1.6914 -0.37312,0.3959 -0.79244,0.6254 -1.25781,0.6855 -0.46537,0.06 -0.9753,-0.049 -1.5332,-0.3242 -0.5579,-0.2754 -1.16375,-0.7175 -1.81445,-1.3281 -0.65071,-0.6107 -1.34801,-1.3884 -2.0918,-2.334 -1.45988,-1.856 -2.73942,-3.2848 -3.8125,-4.2793 -1.07309,-0.9945 -1.93974,-1.5559 -2.56836,-1.6778 -0.31431,-0.061 -0.56934,-0.011 -0.76172,0.1485 -0.19238,0.1593 -0.32153,0.4276 -0.38476,0.8086 -0.12648,0.7619 0.012,1.97 0.44531,3.6269 0.27286,1.0435 0.39778,2.3972 0.39062,3.9922 -0.007,1.5951 -0.14604,3.4299 -0.39648,5.4356 -0.50089,4.0114 -1.45151,8.7033 -2.70508,13.5117 -1.25357,4.8083 -2.80916,9.7332 -4.52148,14.2109 -0.85616,2.2389 -1.75224,4.3658 -2.66797,6.3106 -0.91574,1.9448 -1.85245,3.7089 -2.79102,5.2187 -3.96253,6.375 -7.20508,12.1181 -7.20508,12.7617 0,0.3221 -1.10229,2.2408 -2.88086,5.0723 -1.77857,2.8315 -4.23339,6.5758 -6.93164,10.5488 -2.69822,3.9736 -5.02713,7.7087 -6.60742,10.5254 -0.79014,1.4084 -1.39217,2.5869 -1.75976,3.4512 -0.3676,0.8643 -0.50191,1.4141 -0.35157,1.5645 0.18289,0.1827 0.62363,0.1062 1.26758,-0.1836 0.64396,-0.2899 1.49259,-0.7934 2.49414,-1.4688 2.00311,-1.3507 4.61698,-3.3861 7.42969,-5.7559 2.81271,-2.3697 5.82454,-5.074 8.61914,-7.7656 2.7946,-2.6916 5.37154,-5.3693 7.32031,-7.6855 3.42246,-3.541 6.02335,-6.3181 8.15625,-8.6953 2.13291,-2.3773 3.79928,-4.3546 5.34961,-6.295 3.10066,-3.8807 5.74169,-7.6146 10.75391,-14.1093 4.67696,-6.0229 8.70807,-11.5815 12.12304,-16.7364 3.41498,-5.1549 6.21557,-9.9073 8.43165,-14.3203 1.10803,-2.2065 2.06852,-4.3283 2.88867,-6.373 0.82014,-2.0447 1.49892,-4.0116 2.03906,-5.9102 0.54014,-1.8986 0.94292,-3.7278 1.21094,-5.4961 0.26801,-1.7683 0.40051,-3.4751 0.40429,-5.1289 0.004,-1.7705 -0.0915,-3.6671 -0.27929,-5.6601 -0.18784,-1.9931 -0.46721,-4.0842 -0.83008,-6.2403 -0.72574,-4.3121 -1.78398,-8.8903 -3.10742,-13.498 -1.32345,-4.6078 -2.91265,-9.2441 -4.69727,-13.6719 -1.78462,-4.4278 -3.76574,-8.6477 -5.875,-12.4199 -2.18194,-3.9021 -5.50752,-9.1502 -9.31055,-14.8301 -3.80302,-5.6799 -8.08279,-11.79 -12.17187,-17.4121 -4.08908,-5.6221 -7.98724,-10.7575 -11.02734,-14.4863 -1.52005,-1.8644 -2.8265,-3.3769 -3.83399,-4.4239 -1.00748,-1.0469 -1.71688,-1.6269 -2.04492,-1.6269 -0.26631,0 -0.46663,0.097 -0.60547,0.2832 -0.13884,0.1862 -0.21564,0.4607 -0.23437,0.8105 -0.0375,0.6998 0.15784,1.7043 0.55664,2.9239 0.3988,1.2195 1.00116,2.6534 1.77734,4.2129 0.77618,1.5594 1.72565,3.2453 2.82031,4.9648 0.84019,1.3192 2.03192,3.5408 3.27344,6.0586 1.24152,2.5178 2.53283,5.3319 3.57617,7.832 0.85461,2.0482 1.37409,3.496 1.3418,4.1895 -0.0162,0.3467 -0.1694,0.5053 -0.48828,0.4551 -0.31889,-0.05 -0.80288,-0.3089 -1.47852,-0.795 -1.35127,-0.9722 -3.46994,-2.8558 -6.57226,-5.8047 -3.10233,-2.9488 -7.18915,-6.9626 -12.47461,-12.1992 -1.20064,-1.3186 -5.01115,-4.7191 -10.32031,-9.5547 -5.30917,-4.8355 -12.11662,-11.107 -19.3086,-18.1699 -3.59599,-3.5314 -7.28813,-7.2609 -10.9375,-11.1074 -3.64937,-3.8465 -7.25515,-7.8103 -10.67969,-11.8105 -3.42453,-4.0003 -6.66835,-8.0365 -9.58984,-12.0293 -2.92149,-3.9929 -5.52188,-7.9414 -7.66211,-11.7657 -0.31729,-1.6597 -0.50714,-3.1695 -0.56836,-4.5293 -0.0612,-1.3597 0.007,-2.5696 0.20703,-3.6328 0.19999,-1.0631 0.53171,-1.9801 0.99805,-2.75 0.46634,-0.7699 1.06686,-1.3931 1.80469,-1.873 0.73783,-0.48 1.61248,-0.8164 2.62695,-1.0098 1.01447,-0.1934 2.16859,-0.2441 3.46484,-0.1543 1.29625,0.09 2.73519,0.3199 4.31836,0.6895 1.58318,0.3696 3.31031,0.8793 5.18555,1.5254 1.98561,0.6841 3.71671,1.193 5.19336,1.5468 1.47665,0.3538 2.69961,0.5526 3.66992,0.6094 0.97032,0.057 1.6877,-0.028 2.1543,-0.2344 0.4666,-0.2069 0.68293,-0.5372 0.64844,-0.9746 -0.0345,-0.4374 -0.3186,-0.9826 -0.85157,-1.6172 -0.53297,-0.6345 -1.31492,-1.3577 -2.34375,-2.1562 -1.02882,-0.7985 -2.30607,-1.6705 -3.82812,-2.5996 -1.52206,-0.9291 -3.29007,-1.9169 -5.30274,-2.9434 -1.63464,-0.8339 -3.32897,-1.5747 -5.07226,-2.2187 -1.7433,-0.644 -3.53549,-1.1893 -5.36328,-1.6348 -1.82779,-0.4455 -3.69,-0.7909 -5.57813,-1.0293 -1.88812,-0.2384 -3.80225,-0.3699 -5.72656,-0.3926 z"
       id="path5500"
       transform="scale(0.26458333)" />
  </g>
  <g
     id="g5601"
     transform="matrix(0.54324995,0,0,0.54324995,149.01012,1116.8161)"
     style="fill:#5dcef6;fill-opacity:1;stroke:none"
     inkscape:export-xdpi="96"
     inkscape:export-ydpi="96"
     inkscape:export-filename="E:\Filipe\PROJETOS\EDU-SOFTWARE\site\logo.png">
    <path
       transform="scale(0.26458333)"
       id="path5581"
       d="m -969.29297,-7475.5508 c -0.29803,0 -0.53329,0.1554 -0.70312,0.4688 -0.16984,0.3133 -0.27398,0.7855 -0.30469,1.4199 -0.0614,1.2687 0.166,3.1863 0.72656,5.7851 0.86474,4.0094 1.98596,8.0438 3.31055,11.9942 1.32459,3.9504 2.8536,7.8171 4.53711,11.4883 1.68351,3.6711 3.52141,7.1468 5.46289,10.3183 1.94148,3.1716 3.98547,6.0386 6.08398,8.4903 1.23263,1.4401 2.63352,2.8995 4.15625,4.3496 1.52273,1.4501 3.16732,2.8909 4.89258,4.2968 3.45053,2.812 7.21982,5.4822 10.95508,7.793 3.73525,2.3108 7.43642,4.2621 10.75586,5.6387 1.65972,0.6883 3.22402,1.2338 4.64844,1.6074 1.42441,0.3736 2.709,0.5754 3.81054,0.5801 h 5.93164 l -5.93164,-3.957 v 0.039 c -2.49126,-1.5487 -5.00338,-3.2884 -7.50781,-5.1816 -2.50443,-1.8932 -5.00064,-3.9402 -7.45508,-6.1055 -2.45444,-2.1653 -4.86767,-4.4493 -7.20898,-6.8144 -2.34132,-2.3651 -4.61035,-4.8122 -6.77539,-7.3047 -2.16505,-2.4925 -4.22672,-5.0306 -6.15235,-7.5782 -1.92563,-2.5475 -3.71481,-5.1045 -5.33789,-7.6347 -1.62307,-2.5303 -3.07856,-5.034 -4.33594,-7.4746 -1.25737,-2.4406 -2.31795,-4.8172 -3.14648,-7.0957 -2.41635,-4.9083 -4.58213,-8.6866 -6.36328,-11.2364 -0.89058,-1.2748 -1.68498,-2.2412 -2.36524,-2.8906 -0.68025,-0.6494 -1.24799,-0.9805 -1.68359,-0.9805 z"
       style="opacity:1;fill:#5dcef6;fill-opacity:1;stroke:none;stroke-width:3.77953;stroke-linecap:butt;stroke-linejoin:miter;stroke-miterlimit:4;stroke-dasharray:none;stroke-opacity:1"
       inkscape:connector-curvature="0" />
    <path
       transform="scale(0.26458333)"
       id="path5583"
       d="m -969.29297,-7475.5508 v 0.016 c 0.4356,0 1.00334,0.3311 1.68359,0.9805 0.68026,0.6494 1.47466,1.6158 2.36524,2.8906 1.78115,2.5498 3.94693,6.3281 6.36328,11.2364 0.82853,2.2785 1.88911,4.6551 3.14648,7.0957 1.25738,2.4406 2.71287,4.9443 4.33594,7.4746 1.62308,2.5302 3.41226,5.0872 5.33789,7.6347 1.92563,2.5476 3.9873,5.0857 6.15235,7.5782 2.16504,2.4925 4.43407,4.9396 6.77539,7.3047 2.34131,2.3651 4.75454,4.6491 7.20898,6.8144 2.45444,2.1653 4.95065,4.2123 7.45508,6.1055 2.50443,1.8932 5.01655,3.6329 7.50781,5.1816 v -0.039 l 5.93164,3.957 h -5.93164 c -1.10154,0 -2.38613,-0.2065 -3.81054,-0.5801 -1.42442,-0.3736 -2.98872,-0.9191 -4.64844,-1.6074 -3.31944,-1.3766 -7.02061,-3.3279 -10.75586,-5.6387 -3.73526,-2.3108 -7.50455,-4.981 -10.95508,-7.793 -1.72526,-1.4059 -3.36985,-2.8467 -4.89258,-4.2968 -1.52273,-1.4501 -2.92362,-2.9095 -4.15625,-4.3496 -2.09851,-2.4517 -4.1425,-5.3187 -6.08398,-8.4903 -1.94148,-3.1715 -3.77938,-6.6472 -5.46289,-10.3183 -1.68351,-3.6712 -3.21252,-7.5379 -4.53711,-11.4883 -1.32459,-3.9504 -2.44581,-7.9848 -3.31055,-11.9942 -0.56056,-2.5988 -0.78798,-4.5164 -0.72656,-5.7851 0.0307,-0.6344 0.13485,-1.1066 0.30469,-1.4199 0.16983,-0.3134 0.40509,-0.4688 0.70312,-0.4688 z"
       style="opacity:1;fill:#5dcef6;fill-opacity:1;stroke:none;stroke-width:3.77953;stroke-linecap:butt;stroke-linejoin:miter;stroke-miterlimit:4;stroke-dasharray:none;stroke-opacity:1"
       inkscape:connector-curvature="0" />
    <path
       transform="scale(0.26458333)"
       id="path5585"
       d="m -956.2793,-7490.1602 c -0.39247,0.029 -0.69258,0.3158 -0.89258,0.8653 -0.20022,0.5501 -0.30057,1.3635 -0.29101,2.4394 0.0191,2.152 0.47401,5.36 1.43359,9.6407 0.54476,2.4301 1.44707,5.0632 2.63086,7.8125 1.18379,2.7492 2.65028,5.6134 4.32422,8.5039 1.67394,2.8905 3.55511,5.8084 5.57031,8.6621 2.0152,2.8537 4.16352,5.6442 6.3711,8.2832 2.20757,2.6389 4.47549,5.1249 6.72656,7.3711 2.25107,2.2462 4.48519,4.2523 6.63086,5.9277 2.14567,1.6755 4.20236,3.0206 6.09375,3.9473 0.94569,0.4633 1.85087,0.8216 2.70508,1.0644 0.85421,0.2428 1.65628,0.3711 2.40039,0.3711 0.47731,0 0.86203,-0.052 1.14648,-0.166 0.28445,-0.1135 0.46967,-0.288 0.54688,-0.5371 0.15441,-0.4982 -0.12,-1.2909 -0.88086,-2.4649 -0.76086,-1.1739 -2.00764,-2.7286 -3.79883,-4.7558 -1.79119,-2.0273 -4.12787,-4.5259 -7.06445,-7.584 -2.56641,-2.6728 -4.945,-5.3366 -7.16211,-8.0273 -2.21711,-2.6907 -4.27182,-5.4087 -6.18946,-8.1895 -1.91763,-2.7808 -3.69725,-5.6252 -5.36523,-8.5684 -1.66798,-2.9431 -3.22522,-5.9844 -4.69336,-9.1621 -1.19574,-2.588 -2.322,-4.8546 -3.36719,-6.7968 -1.04519,-1.9422 -2.00894,-3.5614 -2.8789,-4.8516 -0.86997,-1.2902 -1.64634,-2.2526 -2.31641,-2.8848 -0.66946,-0.6315 -1.23243,-0.9319 -1.67773,-0.9004 0,0 -0.002,0 -0.002,0 z"
       style="opacity:1;fill:#5dcef6;fill-opacity:1;stroke:none;stroke-width:3.77953;stroke-linecap:butt;stroke-linejoin:miter;stroke-miterlimit:4;stroke-dasharray:none;stroke-opacity:1"
       inkscape:connector-curvature="0" />
    <path
       transform="scale(0.26458333)"
       id="path5587"
       d="m -956.2793,-7490.1602 c 0,0 0.002,0 0.002,0 0.4453,-0.032 1.00827,0.2689 1.67773,0.9004 0.67007,0.6322 1.44644,1.5946 2.31641,2.8848 0.86996,1.2902 1.83371,2.9094 2.8789,4.8516 1.04519,1.9422 2.17145,4.2088 3.36719,6.7968 1.46814,3.1777 3.02538,6.219 4.69336,9.1621 1.66798,2.9432 3.4476,5.7876 5.36523,8.5684 1.91764,2.7808 3.97235,5.4988 6.18946,8.1895 2.21711,2.6907 4.5957,5.3545 7.16211,8.0273 2.93658,3.0581 5.27326,5.5567 7.06445,7.584 1.79119,2.0272 3.03797,3.5819 3.79883,4.7558 0.76086,1.174 1.03527,1.9667 0.88086,2.4649 -0.0772,0.2491 -0.26243,0.4236 -0.54688,0.5371 -0.28445,0.1135 -0.66917,0.166 -1.14648,0.166 -0.74411,0 -1.54618,-0.1283 -2.40039,-0.3711 -0.85421,-0.2428 -1.75939,-0.6011 -2.70508,-1.0644 -1.89139,-0.9267 -3.94808,-2.2718 -6.09375,-3.9473 -2.14567,-1.6754 -4.37979,-3.6815 -6.63086,-5.9277 -2.25107,-2.2462 -4.51899,-4.7322 -6.72656,-7.3711 -2.20758,-2.639 -4.3559,-5.4295 -6.3711,-8.2832 -2.0152,-2.8537 -3.89637,-5.7716 -5.57031,-8.6621 -1.67394,-2.8905 -3.14043,-5.7547 -4.32422,-8.5039 -1.18379,-2.7493 -2.0861,-5.3824 -2.63086,-7.8125 -0.95958,-4.2807 -1.41447,-7.4887 -1.43359,-9.6407 -0.01,-1.0759 0.0908,-1.8893 0.29101,-2.4394 0.2,-0.5495 0.50011,-0.8363 0.89258,-0.8653 z"
       style="opacity:1;fill:#5dcef6;fill-opacity:1;stroke:none;stroke-width:3.77953;stroke-linecap:butt;stroke-linejoin:miter;stroke-miterlimit:4;stroke-dasharray:none;stroke-opacity:1"
       inkscape:connector-curvature="0" />
    <path
       transform="scale(0.26458333)"
       id="path5589"
       d="m -707.05664,-7492.4492 c -0.25631,0 -0.75005,0.4551 -1.42383,1.2773 -0.67378,0.8223 -1.52629,2.0111 -2.5,3.4785 -1.94741,2.935 -4.37843,6.9839 -6.82031,11.4375 -4.01196,6.472 -8.01079,12.869 -12.16406,19.0743 -2.07664,3.1026 -4.19136,6.156 -6.36524,9.1484 -2.17387,2.9924 -4.40636,5.9223 -6.71875,8.7754 -2.31238,2.8531 -4.7051,5.6296 -7.19726,8.3144 -2.49217,2.6849 -5.08561,5.2781 -7.79883,7.7657 -2.71322,2.4875 -5.54594,4.8697 -8.52149,7.1308 -2.97555,2.2612 -6.09389,4.4024 -9.37304,6.4082 -2.1443,1.2641 -4.09224,2.6425 -5.50586,3.8457 -0.70681,0.6016 -1.27969,1.1592 -1.67578,1.6368 -0.39609,0.4775 -0.61719,0.8753 -0.61719,1.1562 0,0.3492 0.1299,0.61 0.38672,0.7852 0.25682,0.1751 0.64188,0.2635 1.15234,0.2656 1.02092,0 2.54616,-0.3361 4.5625,-1.0176 2.01634,-0.6814 4.5235,-1.7039 7.50977,-3.0625 2.98627,-1.3586 6.45015,-3.0527 10.38086,-5.0801 v 0 c 4.27322,-2.204 8.07407,-4.3841 11.52929,-6.6543 3.45523,-2.2702 6.56572,-4.632 9.46094,-7.1973 2.89522,-2.5653 5.57476,-5.3348 8.16797,-8.4238 2.59321,-3.0891 5.09924,-6.4963 7.64844,-10.3379 2.57575,-4.7354 4.46356,-8.1628 5.91797,-10.9199 1.4544,-2.7571 2.47556,-4.8444 3.31836,-6.9024 0.84279,-2.058 1.50713,-4.0865 2.24804,-6.7246 0.74092,-2.6381 1.55826,-5.8853 2.70703,-10.3828 0.97743,-3.7935 1.65819,-7.2418 1.96485,-9.7422 0.15332,-1.2502 0.21213,-2.2643 0.16992,-2.9648 -0.0422,-0.7006 -0.18705,-1.0879 -0.44336,-1.0879 z"
       style="opacity:1;fill:#5dcef6;fill-opacity:1;stroke:none;stroke-width:3.77953;stroke-linecap:butt;stroke-linejoin:miter;stroke-miterlimit:4;stroke-dasharray:none;stroke-opacity:1"
       inkscape:connector-curvature="0" />
    <path
       transform="scale(0.26458333)"
       id="path5591"
       d="m -707.05664,-7492.4492 c 0.25631,0 0.40115,0.3873 0.44336,1.0879 0.0422,0.7005 -0.0166,1.7146 -0.16992,2.9648 -0.30666,2.5004 -0.98742,5.9487 -1.96485,9.7422 -1.14877,4.4975 -1.96611,7.7447 -2.70703,10.3828 -0.74091,2.6381 -1.40525,4.6666 -2.24804,6.7246 -0.8428,2.058 -1.86396,4.1453 -3.31836,6.9024 -1.45441,2.7571 -3.34222,6.1845 -5.91797,10.9199 -2.5492,3.8416 -5.05523,7.2488 -7.64844,10.3379 -2.59321,3.089 -5.27275,5.8585 -8.16797,8.4238 -2.89522,2.5653 -6.00571,4.9271 -9.46094,7.1973 -3.45522,2.2702 -7.25607,4.4503 -11.52929,6.6543 v 0 c -3.93071,2.0274 -7.39459,3.7215 -10.38086,5.0801 -2.98627,1.3586 -5.49343,2.3811 -7.50977,3.0625 -2.01634,0.6815 -3.54158,1.0218 -4.5625,1.0176 -0.51046,0 -0.89552,-0.091 -1.15234,-0.2656 -0.25682,-0.1752 -0.38672,-0.436 -0.38672,-0.7852 0,-0.2809 0.2211,-0.6787 0.61719,-1.1562 0.39609,-0.4776 0.96897,-1.0352 1.67578,-1.6368 1.41362,-1.2032 3.36156,-2.5816 5.50586,-3.8457 3.27915,-2.0058 6.39749,-4.147 9.37304,-6.4082 2.97555,-2.2611 5.80827,-4.6433 8.52149,-7.1308 2.71322,-2.4876 5.30666,-5.0808 7.79883,-7.7657 2.49216,-2.6848 4.88488,-5.4613 7.19726,-8.3144 2.31239,-2.8531 4.54488,-5.783 6.71875,-8.7754 2.17388,-2.9924 4.2886,-6.0458 6.36524,-9.1484 4.15327,-6.2053 8.1521,-12.6023 12.16406,-19.0743 2.44188,-4.4536 4.8729,-8.5025 6.82031,-11.4375 0.97371,-1.4674 1.82622,-2.6562 2.5,-3.4785 0.67378,-0.8222 1.16752,-1.2773 1.42383,-1.2773 z"
       style="opacity:1;fill:#5dcef6;fill-opacity:1;stroke:none;stroke-width:3.77953;stroke-linecap:butt;stroke-linejoin:miter;stroke-miterlimit:4;stroke-dasharray:none;stroke-opacity:1"
       inkscape:connector-curvature="0" />
    <path
       transform="scale(0.26458333)"
       id="path5593"
       d="m -684.55078,-7504.0879 c -0.50941,-0.015 -1.03275,0.02 -1.57031,0.096 -1.17184,0.1678 -2.07925,0.3734 -2.77149,0.7461 -0.69224,0.3727 -1.16767,0.9116 -1.47461,1.7461 -0.30693,0.8345 -0.44502,1.9645 -0.46093,3.5176 -0.0159,1.553 0.0887,3.5301 0.26953,6.0586 0.14887,2.082 0.17228,4.0524 0.0527,5.9922 -0.11955,1.9397 -0.38026,3.8492 -0.80273,5.8066 -0.42248,1.9574 -1.00573,3.9628 -1.76563,6.0977 -0.7599,2.1348 -1.69825,4.3989 -2.83008,6.8711 -1.15892,2.4538 -2.60568,5.1509 -4.29101,8.0078 -1.68534,2.8568 -3.60823,5.8735 -5.7168,8.9629 -2.10857,3.0893 -4.40341,6.2528 -6.83203,9.4043 -2.42862,3.1514 -4.99122,6.2908 -7.63672,9.3339 -2.6455,3.0432 -5.37361,5.9895 -8.13281,8.7539 -2.7592,2.7645 -5.54863,5.3469 -8.31836,7.6622 -2.76973,2.3152 -5.52019,4.3629 -8.19727,6.0585 -2.67707,1.6957 -5.28242,3.0397 -7.76367,3.9454 -0.2887,-0.1792 -0.5216,-0.2423 -0.69726,-0.2012 -0.17567,0.041 -0.29371,0.1853 -0.34961,0.418 -0.11182,0.4653 0.0222,1.2863 0.42968,2.3457 0.24335,0.6342 0.54106,1.1547 0.89063,1.5605 0.34957,0.4058 0.75225,0.6956 1.20312,0.8711 0.45088,0.1755 0.9508,0.2365 1.49805,0.1797 0.54725,-0.057 1.1406,-0.2304 1.7793,-0.5215 7.59252,-2.7812 11.07177,-4.1996 13.96484,-5.4766 2.89307,-1.2769 5.19995,-2.4125 10.44922,-4.6269 5.40055,-2.0549 8.851,-3.4407 11.21875,-4.4961 2.36775,-1.0554 3.65352,-1.781 4.73047,-2.5176 1.07695,-0.7365 1.94451,-1.4838 3.47266,-2.582 1.52814,-1.0983 3.71616,-2.547 7.4375,-4.6875 3.93116,-2.2303 8.05002,-4.9274 12.08789,-7.8574 4.03786,-2.9301 7.99627,-6.0932 11.60546,-9.2539 3.6092,-3.1608 6.87048,-6.3196 9.51563,-9.2422 1.32258,-1.4613 2.48952,-2.8639 3.4707,-4.1778 0.98119,-1.3138 1.77479,-2.5387 2.34766,-3.6465 0.87349,-1.0552 1.61061,-2.137 2.22461,-3.2343 0.614,-1.0973 1.10527,-2.211 1.48633,-3.3282 0.38105,-1.1171 0.65348,-2.2385 0.82812,-3.3535 0.17465,-1.1149 0.25131,-2.2239 0.2461,-3.3144 -0.0104,-2.1812 -0.35321,-4.2914 -0.92383,-6.2422 -0.57063,-1.9509 -1.36864,-3.7417 -2.28711,-5.2852 -0.91848,-1.5435 -1.95775,-2.8397 -3.01172,-3.7988 -1.05397,-0.9591 -2.12249,-1.5816 -3.09961,-1.7793 -0.48856,-0.099 -0.95328,-0.091 -1.38281,0.033 -0.42954,0.1247 -0.82401,0.3679 -1.16797,0.7383 -0.34397,0.3704 -0.63925,0.8696 -0.8711,1.5078 -0.23184,0.6382 -0.40094,1.4156 -0.49414,2.3438 -0.006,0.8246 -0.5426,2.3831 -1.40429,4.2304 -0.86169,1.8473 -2.04814,3.9833 -3.35157,5.961 l -4.74023,7.1914 1.48242,-12.5137 c 0.20918,-1.7663 0.3241,-3.4679 0.34961,-5.0938 0.0255,-1.6258 -0.0383,-3.1754 -0.18555,-4.6386 -0.14726,-1.4632 -0.37835,-2.8407 -0.6875,-4.1192 -0.30914,-1.2785 -0.69612,-2.4595 -1.15625,-3.5312 -0.46012,-1.0717 -0.99158,-2.0342 -1.59179,-2.877 -0.60022,-0.8427 -1.26865,-1.5646 -1.99805,-2.1562 -0.7294,-0.5917 -1.52144,-1.0526 -2.36914,-1.3711 -0.8477,-0.3185 -1.75193,-0.4944 -2.70703,-0.5176 z"
       style="opacity:1;fill:#5dcef6;fill-opacity:1;stroke:none;stroke-width:3.77953;stroke-linecap:butt;stroke-linejoin:miter;stroke-miterlimit:4;stroke-dasharray:none;stroke-opacity:1"
       inkscape:connector-curvature="0" />
    <path
       transform="scale(0.26458333)"
       id="path5595"
       d="m -684.55078,-7504.0879 c 0.9551,0.023 1.85933,0.1991 2.70703,0.5176 0.8477,0.3185 1.63974,0.7794 2.36914,1.3711 0.7294,0.5916 1.39783,1.3135 1.99805,2.1562 0.60021,0.8428 1.13167,1.8053 1.59179,2.877 0.46013,1.0717 0.84711,2.2527 1.15625,3.5312 0.30915,1.2785 0.54024,2.656 0.6875,4.1192 0.14727,1.4632 0.21106,3.0128 0.18555,4.6386 -0.0255,1.6259 -0.14043,3.3275 -0.34961,5.0938 l -1.48242,12.5137 4.74023,-7.1914 c 1.30343,-1.9777 2.48988,-4.1137 3.35157,-5.961 0.86169,-1.8473 1.39862,-3.4058 1.40429,-4.2304 0.0932,-0.9282 0.2623,-1.7056 0.49414,-2.3438 0.23185,-0.6382 0.52713,-1.1374 0.8711,-1.5078 0.34396,-0.3704 0.73843,-0.6136 1.16797,-0.7383 0.42953,-0.1247 0.89425,-0.132 1.38281,-0.033 0.97712,0.1977 2.04564,0.8202 3.09961,1.7793 1.05397,0.9591 2.09324,2.2553 3.01172,3.7988 0.91847,1.5435 1.71648,3.3343 2.28711,5.2852 0.57062,1.9508 0.91339,4.061 0.92383,6.2422 0.005,1.0905 -0.0715,2.1995 -0.2461,3.3144 -0.17464,1.115 -0.44707,2.2364 -0.82812,3.3535 -0.38106,1.1172 -0.87233,2.2309 -1.48633,3.3282 -0.614,1.0973 -1.35112,2.1791 -2.22461,3.2343 -0.57287,1.1078 -1.36647,2.3327 -2.34766,3.6465 -0.98118,1.3139 -2.14812,2.7165 -3.4707,4.1778 -2.64515,2.9226 -5.90643,6.0814 -9.51563,9.2422 -3.60919,3.1607 -7.5676,6.3238 -11.60546,9.2539 -4.03787,2.93 -8.15673,5.6271 -12.08789,7.8574 -3.72134,2.1405 -5.90936,3.5892 -7.4375,4.6875 -1.52815,1.0982 -2.39571,1.8455 -3.47266,2.582 -1.07695,0.7366 -2.36272,1.4622 -4.73047,2.5176 -2.36775,1.0554 -5.8182,2.4412 -11.21875,4.4961 -5.24927,2.2144 -7.55615,3.35 -10.44922,4.6269 -2.89307,1.277 -6.37232,2.6954 -13.96484,5.4766 -0.6387,0.2911 -1.23205,0.4647 -1.7793,0.5215 -0.54725,0.057 -1.04717,0 -1.49805,-0.1797 -0.45087,-0.1755 -0.85355,-0.4653 -1.20312,-0.8711 -0.34957,-0.4058 -0.64728,-0.9263 -0.89063,-1.5605 -0.40747,-1.0594 -0.5415,-1.8804 -0.42968,-2.3457 0.0559,-0.2327 0.17394,-0.3769 0.34961,-0.418 0.17566,-0.041 0.40856,0.022 0.69726,0.2012 2.48125,-0.9057 5.0866,-2.2497 7.76367,-3.9454 2.67708,-1.6956 5.42754,-3.7433 8.19727,-6.0585 2.76973,-2.3153 5.55916,-4.8977 8.31836,-7.6622 2.7592,-2.7644 5.48731,-5.7107 8.13281,-8.7539 2.6455,-3.0431 5.2081,-6.1825 7.63672,-9.3339 2.42862,-3.1515 4.72346,-6.315 6.83203,-9.4043 2.10857,-3.0894 4.03146,-6.1061 5.7168,-8.9629 1.68533,-2.8569 3.13209,-5.554 4.29101,-8.0078 1.13183,-2.4722 2.07018,-4.7363 2.83008,-6.8711 0.7599,-2.1349 1.34315,-4.1403 1.76563,-6.0977 0.42247,-1.9574 0.68318,-3.8669 0.80273,-5.8066 0.11955,-1.9398 0.0961,-3.9102 -0.0527,-5.9922 -0.18083,-2.5285 -0.28545,-4.5056 -0.26953,-6.0586 0.0159,-1.5531 0.154,-2.6831 0.46093,-3.5176 0.30694,-0.8345 0.78237,-1.3734 1.47461,-1.7461 0.69224,-0.3727 1.59965,-0.5783 2.77149,-0.7461 0.53756,-0.076 1.0609,-0.1108 1.57031,-0.096 z"
       style="opacity:1;fill:#5dcef6;fill-opacity:1;stroke:none;stroke-width:3.77953;stroke-linecap:butt;stroke-linejoin:miter;stroke-miterlimit:4;stroke-dasharray:none;stroke-opacity:1"
       inkscape:connector-curvature="0" />
    <path
       transform="scale(0.26458333)"
       id="path5597"
       d="m -999.17773,-7504.3066 c -0.86917,0.01 -1.71697,0.1444 -2.54297,0.4043 -0.826,0.2598 -1.6302,0.6438 -2.4063,1.1523 -0.776,0.5085 -1.5249,1.1411 -2.2441,1.8965 -0.7192,0.7554 -1.4089,1.6341 -2.0644,2.6347 -0.8664,1.3221 -1.5293,2.4876 -2.004,3.6583 -0.4746,1.1706 -0.7601,2.3461 -0.8691,3.6835 -0.109,1.3375 -0.041,2.838 0.1895,4.6602 0.2307,1.8222 0.6234,3.9666 1.1679,6.5918 0.7053,3.4004 1.2536,6.5916 1.5684,8.9941 0.3147,2.4026 0.3959,4.0149 0.168,4.2598 -0.228,0.2447 -1.0392,-0.7749 -2.1622,-2.6152 -1.1229,-1.8404 -2.5576,-4.4997 -4.0332,-7.5371 -1.2656,-2.605 -2.2489,-4.5842 -3.0761,-6.0293 -0.8272,-1.4451 -1.4979,-2.3563 -2.1387,-2.8262 -0.3204,-0.2349 -0.6321,-0.361 -0.9531,-0.3867 -0.321,-0.026 -0.6508,0.049 -1.0039,0.209 -0.7063,0.3207 -1.5094,0.9912 -2.5332,1.9179 -0.7295,0.6602 -1.3632,1.4462 -1.9024,2.336 -0.5392,0.8898 -0.9823,1.8824 -1.332,2.957 -0.3498,1.0746 -0.6064,2.2307 -0.7676,3.4453 -0.1612,1.2147 -0.2276,2.489 -0.2012,3.7988 0.026,1.3099 0.1463,2.6554 0.3594,4.0157 0.2132,1.3602 0.519,2.7338 0.918,4.0996 0.3989,1.3658 0.8907,2.7242 1.4746,4.0508 0.5839,1.3265 1.2594,2.6227 2.0273,3.8652 1.1843,1.9162 2.646,3.8996 4.3536,5.9297 1.7075,2.0301 3.6613,4.1064 5.832,6.207 2.1707,2.1006 4.559,4.226 7.1328,6.3535 2.5738,2.1276 5.3333,4.2562 8.25,6.3672 2.91674,2.111 5.98981,4.2029 9.18945,6.2539 3.19964,2.051 6.52481,4.0623 9.94727,6.0098 3.42245,1.9475 6.94216,3.8323 10.52734,5.6328 3.58517,1.8005 7.23601,3.517 10.92383,5.1269 4.00426,1.7485 7.91855,3.3026 11.48242,4.5957 3.56387,1.2932 6.77873,2.3248 9.38281,3.0235 2.60408,0.6986 4.59777,1.0644 5.72266,1.0293 0.56244,-0.018 0.9067,-0.1342 1.00195,-0.3613 0.0953,-0.2272 -0.0592,-0.5635 -0.49609,-1.0176 -0.54977,-0.5711 -10.82547,-11.0986 -22.83594,-23.3926 -6.97497,-7.1398 -12.7115,-13.2106 -17.44922,-18.5508 -2.36886,-2.6701 -4.48747,-5.1586 -6.38672,-7.5058 -1.89925,-2.3473 -3.57891,-4.5531 -5.06836,-6.6621 -1.48944,-2.1091 -2.78828,-4.1207 -3.92773,-6.0762 -1.13945,-1.9556 -2.1195,-3.8555 -2.96875,-5.7422 -0.84926,-1.8868 -1.56864,-3.7614 -2.1875,-5.6641 -0.61887,-1.9026 -1.13766,-3.8327 -1.58594,-5.8359 -0.58888,-2.6315 -1.0255,-4.8025 -1.31055,-6.625 -0.28504,-1.8226 -0.41767,-3.2976 -0.39453,-4.543 0.0231,-1.2454 0.20142,-2.2601 0.53711,-3.1601 0.33569,-0.9 0.82788,-1.6863 1.48047,-2.4727 0.6725,-0.8102 1.17431,-1.4769 1.50391,-2.0527 0.3296,-0.5758 0.48783,-1.0593 0.4707,-1.4981 -0.0171,-0.4388 -0.20848,-0.8332 -0.57617,-1.2324 -0.36769,-0.3992 -0.91268,-0.8046 -1.63477,-1.2617 -1.13429,-0.7176 -2.25134,-1.2538 -3.3457,-1.6074 -1.09436,-0.3537 -2.16602,-0.5228 -3.20898,-0.5039 z"
       style="opacity:1;fill:#5dcef6;fill-opacity:1;stroke:none;stroke-width:3.77953;stroke-linecap:butt;stroke-linejoin:miter;stroke-miterlimit:4;stroke-dasharray:none;stroke-opacity:1"
       inkscape:connector-curvature="0" />
    <path
       transform="scale(0.26458333)"
       id="path5599"
       d="m -843.93164,-7742.4844 c -1.92432,-0.023 -3.86041,0.064 -5.79688,0.2656 -1.93646,0.2015 -3.87231,0.5171 -5.79687,0.9512 -1.92456,0.4341 -3.83795,0.9869 -5.72656,1.6621 -1.88862,0.6753 -3.75341,1.4716 -5.58203,2.3965 -0.87391,0.1829 -2.07331,0.7561 -3.51368,1.625 -1.44037,0.8689 -3.1208,2.0347 -4.95703,3.4063 -3.67246,2.7431 -7.96694,6.309 -12.19922,9.9629 -2.91477,3.2451 -6.10991,6.8364 -9.64453,11.082 -4.22366,4.2373 -8.20807,8.5346 -11.98633,12.8926 -3.77825,4.3579 -7.34908,8.7755 -10.74218,13.25 -3.3931,4.4745 -6.60954,9.0066 -9.67774,13.5937 -3.0682,4.5871 -5.98941,9.2301 -8.79297,13.9258 -1.57427,2.2476 -2.66104,4.0508 -3.2207,5.4629 -0.27983,0.706 -0.42712,1.3129 -0.4375,1.8301 -0.0104,0.5171 0.11516,0.9435 0.38477,1.2851 0.2696,0.3417 0.68206,0.5998 1.24218,0.7793 0.56012,0.1795 1.26774,0.2818 2.12891,0.3125 1.72234,0.061 4.05716,-0.1616 7.04688,-0.6152 2.79036,-0.4235 5.24753,-0.5562 7.2539,-0.457 2.00638,0.099 3.56222,0.4286 4.55469,0.9335 0.49623,0.2525 0.85113,0.549 1.05078,0.8809 0.19965,0.3319 0.24482,0.7009 0.11914,1.0977 -0.12568,0.3968 -0.42065,0.8225 -0.90039,1.2695 -0.47974,0.447 -1.14527,0.9138 -2.00781,1.3965 -2.46253,1.3782 -5.5105,3.4793 -8.83203,6.0254 -3.32154,2.5461 -6.915,5.5383 -10.47071,8.6972 -3.55571,3.159 -7.07322,6.4864 -10.23828,9.7032 -3.16506,3.2167 -5.97933,6.3235 -8.1289,9.0429 -1.60065,2.025 -3.08396,4.074 -4.45118,6.1485 -1.36721,2.0744 -2.61809,4.1736 -3.75195,6.2968 -1.13386,2.1233 -2.1502,4.27 -3.05078,6.4414 -0.90058,2.1715 -1.68419,4.3671 -2.35156,6.586 -0.66738,2.2189 -1.2181,4.4627 -1.65235,6.7285 -0.43424,2.2658 -0.75193,4.5533 -0.95312,6.8652 -0.20119,2.312 -0.2857,4.6484 -0.25391,7.0059 0.0318,2.3575 0.17866,4.7363 0.44336,7.1387 0.26471,2.4023 0.64699,4.8269 1.14453,7.2734 0.49754,2.4465 1.1115,4.9162 1.8418,7.4063 0.7303,2.49 1.57607,5.0002 2.53906,7.5332 0.96299,2.5329 2.04268,5.0869 3.23828,7.6621 1.19561,2.5751 2.50741,5.1724 3.93555,7.789 1.42814,2.6167 2.9722,5.2526 4.63281,7.9102 1.66061,2.6575 3.43708,5.3354 5.33008,8.0332 1.893,2.6978 3.90203,5.4169 6.02734,8.1543 7.93074,10.2138 11.86761,15.2873 14.02344,17.6055 1.07792,1.159 1.71055,1.6304 2.17578,1.7089 0.46523,0.079 0.7614,-0.2341 1.16797,-0.6406 0.19263,-0.1926 0.21118,-0.7045 0.0801,-1.4629 -0.1311,-0.7584 -0.41055,-1.7638 -0.81641,-2.9453 -0.81171,-2.363 -2.12528,-5.4293 -3.74218,-8.6289 -2.18386,-4.3215 -4.17917,-8.6842 -5.98047,-13.0469 -1.80131,-4.3627 -3.40707,-8.7268 -4.81446,-13.0527 -1.40738,-4.326 -2.61507,-8.613 -3.61718,-12.8242 -1.00211,-4.2112 -1.7993,-8.3468 -2.38477,-12.3653 -0.58547,-4.0184 -0.95971,-7.9202 -1.11719,-11.6679 -0.15747,-3.7478 -0.0983,-7.3412 0.1836,-10.7403 0.28189,-3.3991 0.78691,-6.6037 1.51953,-9.5761 0.73261,-2.9725 1.69202,-5.7119 2.88672,-8.1797 0.89388,-1.8466 1.90158,-3.614 3.05664,-5.3242 1.15506,-1.7103 2.45746,-3.365 3.94726,-4.9883 1.48981,-1.6234 3.16634,-3.215 5.06446,-4.8008 1.89811,-1.5858 4.01844,-3.1641 6.39843,-4.7617 2.38,-1.5977 5.01965,-3.2142 7.95508,-4.8731 2.93544,-1.6588 6.16602,-3.3613 9.73047,-5.1308 7.1289,-3.539 15.58942,-7.3473 25.67578,-11.625 5.00233,-2.1216 9.34073,-3.979 13.1836,-5.5684 3.84287,-1.5894 7.19038,-2.9122 10.21679,-3.9629 3.02642,-1.0507 5.73025,-1.8306 8.28321,-2.3359 2.55295,-0.5053 4.95641,-0.7361 7.3789,-0.6895 2.4225,0.047 4.86497,0.3713 7.5,0.9766 2.63504,0.6053 5.46178,1.4916 8.65235,2.6621 6.38114,2.3409 14.21568,5.8196 24.87695,10.4609 6.39599,2.7846 12.30838,5.5501 17.75781,8.3204 5.44943,2.7702 10.43614,5.5444 14.98047,8.3437 4.54433,2.7993 8.64741,5.6244 12.32813,8.4961 3.68071,2.8717 6.94026,5.7899 9.79882,8.7773 1.42928,1.4938 2.75872,3.0044 3.99024,4.5352 1.23152,1.5308 2.36535,3.081 3.4043,4.6543 1.03894,1.5733 1.98243,3.1698 2.83398,4.791 0.85155,1.6212 1.60996,3.2669 2.2793,4.9414 0.66934,1.6745 1.24987,3.3781 1.74218,5.1113 0.49232,1.7333 0.89633,3.4976 1.2168,5.295 0.32048,1.7973 0.55712,3.6272 0.71094,5.4941 0.15382,1.867 0.22445,3.771 0.2168,5.7129 -0.0138,3.4843 -0.20899,6.2927 -0.5879,8.4297 -0.18945,1.0685 -0.42393,1.9691 -0.70507,2.7012 -0.28115,0.732 -0.60931,1.2954 -0.98243,1.6914 -0.37312,0.3959 -0.79244,0.6254 -1.25781,0.6855 -0.46537,0.06 -0.9753,-0.049 -1.5332,-0.3242 -0.5579,-0.2754 -1.16375,-0.7175 -1.81445,-1.3281 -0.65071,-0.6107 -1.34801,-1.3884 -2.0918,-2.334 -1.45988,-1.856 -2.73942,-3.2848 -3.8125,-4.2793 -1.07309,-0.9945 -1.93974,-1.5559 -2.56836,-1.6778 -0.31431,-0.061 -0.56934,-0.011 -0.76172,0.1485 -0.19238,0.1593 -0.32153,0.4276 -0.38476,0.8086 -0.12648,0.7619 0.012,1.97 0.44531,3.6269 0.27286,1.0435 0.39778,2.3972 0.39062,3.9922 -0.007,1.5951 -0.14604,3.4299 -0.39648,5.4356 -0.50089,4.0114 -1.45151,8.7033 -2.70508,13.5117 -1.25357,4.8083 -2.80916,9.7332 -4.52148,14.2109 -0.85616,2.2389 -1.75224,4.3658 -2.66797,6.3106 -0.91574,1.9448 -1.85245,3.7089 -2.79102,5.2187 -3.96253,6.375 -7.20508,12.1181 -7.20508,12.7617 0,0.3221 -1.10229,2.2408 -2.88086,5.0723 -1.77857,2.8315 -4.23339,6.5758 -6.93164,10.5488 -2.69822,3.9736 -5.02713,7.7087 -6.60742,10.5254 -0.79014,1.4084 -1.39217,2.5869 -1.75976,3.4512 -0.3676,0.8643 -0.50191,1.4141 -0.35157,1.5645 0.18289,0.1827 0.62363,0.1062 1.26758,-0.1836 0.64396,-0.2899 1.49259,-0.7934 2.49414,-1.4688 2.00311,-1.3507 4.61698,-3.3861 7.42969,-5.7559 2.81271,-2.3697 5.82454,-5.074 8.61914,-7.7656 2.7946,-2.6916 5.37154,-5.3693 7.32031,-7.6855 3.42246,-3.541 6.02335,-6.3181 8.15625,-8.6953 2.13291,-2.3773 3.79928,-4.3546 5.34961,-6.295 3.10066,-3.8807 5.74169,-7.6146 10.75391,-14.1093 4.67696,-6.0229 8.70807,-11.5815 12.12304,-16.7364 3.41498,-5.1549 6.21557,-9.9073 8.43165,-14.3203 1.10803,-2.2065 2.06852,-4.3283 2.88867,-6.373 0.82014,-2.0447 1.49892,-4.0116 2.03906,-5.9102 0.54014,-1.8986 0.94292,-3.7278 1.21094,-5.4961 0.26801,-1.7683 0.40051,-3.4751 0.40429,-5.1289 0.004,-1.7705 -0.0915,-3.6671 -0.27929,-5.6601 -0.18784,-1.9931 -0.46721,-4.0842 -0.83008,-6.2403 -0.72574,-4.3121 -1.78398,-8.8903 -3.10742,-13.498 -1.32345,-4.6078 -2.91265,-9.2441 -4.69727,-13.6719 -1.78462,-4.4278 -3.76574,-8.6477 -5.875,-12.4199 -2.18194,-3.9021 -5.50752,-9.1502 -9.31055,-14.8301 -3.80302,-5.6799 -8.08279,-11.79 -12.17187,-17.4121 -4.08908,-5.6221 -7.98724,-10.7575 -11.02734,-14.4863 -1.52005,-1.8644 -2.8265,-3.3769 -3.83399,-4.4239 -1.00748,-1.0469 -1.71688,-1.6269 -2.04492,-1.6269 -0.26631,0 -0.46663,0.097 -0.60547,0.2832 -0.13884,0.1862 -0.21564,0.4607 -0.23437,0.8105 -0.0375,0.6998 0.15784,1.7043 0.55664,2.9239 0.3988,1.2195 1.00116,2.6534 1.77734,4.2129 0.77618,1.5594 1.72565,3.2453 2.82031,4.9648 0.84019,1.3192 2.03192,3.5408 3.27344,6.0586 1.24152,2.5178 2.53283,5.3319 3.57617,7.832 0.85461,2.0482 1.37409,3.496 1.3418,4.1895 -0.0162,0.3467 -0.1694,0.5053 -0.48828,0.4551 -0.31889,-0.05 -0.80288,-0.3089 -1.47852,-0.795 -1.35127,-0.9722 -3.46994,-2.8558 -6.57226,-5.8047 -3.10233,-2.9488 -7.18915,-6.9626 -12.47461,-12.1992 -1.20064,-1.3186 -5.01115,-4.7191 -10.32031,-9.5547 -5.30917,-4.8355 -12.11662,-11.107 -19.3086,-18.1699 -3.59599,-3.5314 -7.28813,-7.2609 -10.9375,-11.1074 -3.64937,-3.8465 -7.25515,-7.8103 -10.67969,-11.8105 -3.42453,-4.0003 -6.66835,-8.0365 -9.58984,-12.0293 -2.92149,-3.9929 -5.52188,-7.9414 -7.66211,-11.7657 -0.31729,-1.6597 -0.50714,-3.1695 -0.56836,-4.5293 -0.0612,-1.3597 0.007,-2.5696 0.20703,-3.6328 0.19999,-1.0631 0.53171,-1.9801 0.99805,-2.75 0.46634,-0.7699 1.06686,-1.3931 1.80469,-1.873 0.73783,-0.48 1.61248,-0.8164 2.62695,-1.0098 1.01447,-0.1934 2.16859,-0.2441 3.46484,-0.1543 1.29625,0.09 2.73519,0.3199 4.31836,0.6895 1.58318,0.3696 3.31031,0.8793 5.18555,1.5254 1.98561,0.6841 3.71671,1.193 5.19336,1.5468 1.47665,0.3538 2.69961,0.5526 3.66992,0.6094 0.97032,0.057 1.6877,-0.028 2.1543,-0.2344 0.4666,-0.2069 0.68293,-0.5372 0.64844,-0.9746 -0.0345,-0.4374 -0.3186,-0.9826 -0.85157,-1.6172 -0.53297,-0.6345 -1.31492,-1.3577 -2.34375,-2.1562 -1.02882,-0.7985 -2.30607,-1.6705 -3.82812,-2.5996 -1.52206,-0.9291 -3.29007,-1.9169 -5.30274,-2.9434 -1.63464,-0.8339 -3.32897,-1.5747 -5.07226,-2.2187 -1.7433,-0.644 -3.53549,-1.1893 -5.36328,-1.6348 -1.82779,-0.4455 -3.69,-0.7909 -5.57813,-1.0293 -1.88812,-0.2384 -3.80225,-0.3699 -5.72656,-0.3926 z"
       style="opacity:1;fill:#5dcef6;fill-opacity:1;stroke:none;stroke-width:3.77953;stroke-linecap:butt;stroke-linejoin:miter;stroke-miterlimit:4;stroke-dasharray:none;stroke-opacity:1"
       inkscape:connector-curvature="0" />
  </g>
  <g
     aria-label="SOFTWARE HOUSE"
     transform="scale(1.1158872,0.89614794)"
     id="text5480"
     style="font-style:normal;font-weight:normal;font-size:10.9844px;line-height:1.25;font-family:sans-serif;letter-spacing:0px;word-spacing:0px;fill:#ffffff;fill-opacity:1;stroke:none;stroke-width:0.304588;stroke-miterlimit:4;stroke-dasharray:none;stroke-opacity:1">
    <path
       d="m 66.681714,52.913027 q 0,0.262811 -0.166267,0.429078 -0.160905,0.166268 -0.423715,0.166268 h -2.11321 q -0.26281,0 -0.434441,-0.166268 -0.166268,-0.166267 -0.166268,-0.429078 v -2.1293 h 0.745523 v 2.064939 h 1.812855 v -2.000577 l -2.317022,-2.799735 q -0.241356,-0.289628 -0.241356,-0.638253 v -1.700223 q 0,-0.26281 0.166268,-0.429078 0.171631,-0.166267 0.434441,-0.166267 h 2.11321 q 0.26281,0 0.423715,0.166267 0.166267,0.166268 0.166267,0.429078 v 1.952306 H 65.936191 V 45.77424 h -1.812855 v 1.769947 l 2.327749,2.799735 q 0.230629,0.278901 0.230629,0.627527 z"
       style="font-style:normal;font-variant:normal;font-weight:bold;font-stretch:condensed;font-family:'Agency FB';-inkscape-font-specification:'Agency FB Bold Condensed';letter-spacing:8.0589px;fill:#ffffff;fill-opacity:1;stroke:none;stroke-width:0.304588;stroke-miterlimit:4;stroke-dasharray:none;stroke-opacity:1"
       id="path897" />
    <path
       d="m 79.605288,52.913027 q 0,0.262811 -0.171632,0.429078 -0.166267,0.166268 -0.429078,0.166268 h -2.349203 q -0.26281,0 -0.429078,-0.166268 -0.166267,-0.166267 -0.166267,-0.429078 v -7.203149 q 0,-0.26281 0.166267,-0.429078 0.166268,-0.166267 0.429078,-0.166267 h 2.349203 q 0.262811,0 0.429078,0.166267 0.171632,0.166268 0.171632,0.429078 z m -0.745524,-0.06436 V 45.77424 h -2.054211 v 7.074426 z"
       style="font-style:normal;font-variant:normal;font-weight:bold;font-stretch:condensed;font-family:'Agency FB';-inkscape-font-specification:'Agency FB Bold Condensed';letter-spacing:8.0589px;fill:#ffffff;fill-opacity:1;stroke:none;stroke-width:0.304588;stroke-miterlimit:4;stroke-dasharray:none;stroke-opacity:1"
       id="path899" />
    <path
       d="m 91.713612,45.77424 h -1.957669 v 3.185905 h 1.802128 v 0.670435 h -1.802128 v 3.877793 h -0.745524 v -8.39384 h 2.703193 z"
       style="font-style:normal;font-variant:normal;font-weight:bold;font-stretch:condensed;font-family:'Agency FB';-inkscape-font-specification:'Agency FB Bold Condensed';letter-spacing:8.0589px;fill:#ffffff;fill-opacity:1;stroke:none;stroke-width:0.304588;stroke-miterlimit:4;stroke-dasharray:none;stroke-opacity:1"
       id="path901" />
    <path
       d="m 103.69321,45.77424 h -1.29796 v 7.734133 h -0.74552 V 45.77424 h -1.30869 v -0.659707 h 3.35217 z"
       style="font-style:normal;font-variant:normal;font-weight:bold;font-stretch:condensed;font-family:'Agency FB';-inkscape-font-specification:'Agency FB Bold Condensed';letter-spacing:8.0589px;fill:#ffffff;fill-opacity:1;stroke:none;stroke-width:0.304588;stroke-miterlimit:4;stroke-dasharray:none;stroke-opacity:1"
       id="path903" />
    <path
       d="m 117.6573,45.114533 -1.14242,8.415294 h -0.60607 l -0.91179,-6.328902 q -0.005,-0.166268 -0.0215,-0.49344 0,0.171631 -0.0215,0.49344 l -0.91179,6.328902 h -0.60608 l -1.14242,-8.415294 h 0.74016 l 0.71335,6.055365 q 0.005,0.203812 0.0215,0.600709 -0.005,-0.203812 0.0214,-0.600709 l 0.86889,-6.055365 h 0.63825 l 0.86352,6.055365 q 0.0107,0.203812 0.0215,0.600709 0,-0.203812 0.0268,-0.600709 l 0.71334,-6.055365 z"
       style="font-style:normal;font-variant:normal;font-weight:bold;font-stretch:condensed;font-family:'Agency FB';-inkscape-font-specification:'Agency FB Bold Condensed';letter-spacing:8.0589px;fill:#ffffff;fill-opacity:1;stroke:none;stroke-width:0.304588;stroke-miterlimit:4;stroke-dasharray:none;stroke-opacity:1"
       id="path905" />
    <path
       d="m 130.10889,53.508373 h -0.74016 l -0.29499,-1.86649 h -1.66804 l -0.295,1.86649 h -0.7187 v -0.02145 l 1.49641,-8.39384 h 0.7348 z m -1.1317,-2.526197 -0.73479,-4.548228 -0.74016,4.548228 z"
       style="font-style:normal;font-variant:normal;font-weight:bold;font-stretch:condensed;font-family:'Agency FB';-inkscape-font-specification:'Agency FB Bold Condensed';letter-spacing:8.0589px;fill:#ffffff;fill-opacity:1;stroke:none;stroke-width:0.304588;stroke-miterlimit:4;stroke-dasharray:none;stroke-opacity:1"
       id="path907" />
    <path
       d="m 142.75356,53.508373 h -0.78307 l -1.56077,-4.494593 0.10191,-0.150177 h 1.33014 V 45.77424 h -1.91476 v 7.734133 h -0.74552 v -8.39384 h 2.81046 q 0.26281,0 0.42908,0.166267 0.16626,0.166268 0.16626,0.429078 v 3.185906 q 0,0.606072 -0.81525,0.606072 -0.0805,0 -0.23599,-0.0054 -0.15554,-0.01073 -0.22526,-0.01073 0.72407,2.00594 1.44277,4.022607 z"
       style="font-style:normal;font-variant:normal;font-weight:bold;font-stretch:condensed;font-family:'Agency FB';-inkscape-font-specification:'Agency FB Bold Condensed';letter-spacing:8.0589px;fill:#ffffff;fill-opacity:1;stroke:none;stroke-width:0.304588;stroke-miterlimit:4;stroke-dasharray:none;stroke-opacity:1"
       id="path909" />
    <path
       d="m 154.69561,53.508373 h -2.75682 v -8.39384 h 2.72464 v 0.659707 h -1.97912 v 3.13227 h 1.80213 v 0.670435 h -1.80213 v 3.271721 h 2.0113 z"
       style="font-style:normal;font-variant:normal;font-weight:bold;font-stretch:condensed;font-family:'Agency FB';-inkscape-font-specification:'Agency FB Bold Condensed';letter-spacing:8.0589px;fill:#ffffff;fill-opacity:1;stroke:none;stroke-width:0.304588;stroke-miterlimit:4;stroke-dasharray:none;stroke-opacity:1"
       id="path911" />
    <path
       d="m 177.64112,53.508373 h -0.74552 v -4.033334 h -2.02203 v 4.033334 h -0.74553 v -8.39384 h 0.74553 v 3.690071 h 2.02203 v -3.690071 h 0.74552 z"
       style="font-style:normal;font-variant:normal;font-weight:bold;font-stretch:condensed;font-family:'Agency FB';-inkscape-font-specification:'Agency FB Bold Condensed';letter-spacing:8.0589px;fill:#ffffff;fill-opacity:1;stroke:none;stroke-width:0.304588;stroke-miterlimit:4;stroke-dasharray:none;stroke-opacity:1"
       id="path913" />
    <path
       d="m 190.58079,52.913027 q 0,0.262811 -0.17164,0.429078 -0.16626,0.166268 -0.42907,0.166268 h -2.34921 q -0.26281,0 -0.42907,-0.166268 -0.16627,-0.166267 -0.16627,-0.429078 v -7.203149 q 0,-0.26281 0.16627,-0.429078 0.16626,-0.166267 0.42907,-0.166267 h 2.34921 q 0.26281,0 0.42907,0.166267 0.17164,0.166268 0.17164,0.429078 z m -0.74553,-0.06436 V 45.77424 h -2.05421 v 7.074426 z"
       style="font-style:normal;font-variant:normal;font-weight:bold;font-stretch:condensed;font-family:'Agency FB';-inkscape-font-specification:'Agency FB Bold Condensed';letter-spacing:8.0589px;fill:#ffffff;fill-opacity:1;stroke:none;stroke-width:0.304588;stroke-miterlimit:4;stroke-dasharray:none;stroke-opacity:1"
       id="path915" />
    <path
       d="m 203.46682,52.913027 q 0,0.262811 -0.17163,0.429078 -0.16627,0.166268 -0.42908,0.166268 h -2.28484 q -0.26281,0 -0.42908,-0.166268 -0.16627,-0.166267 -0.16627,-0.429078 v -7.798494 h 0.74552 v 7.734133 h 1.98985 v -7.734133 h 0.74553 z"
       style="font-style:normal;font-variant:normal;font-weight:bold;font-stretch:condensed;font-family:'Agency FB';-inkscape-font-specification:'Agency FB Bold Condensed';letter-spacing:8.0589px;fill:#ffffff;fill-opacity:1;stroke:none;stroke-width:0.304588;stroke-miterlimit:4;stroke-dasharray:none;stroke-opacity:1"
       id="path917" />
    <path
       d="m 216.14367,52.913027 q 0,0.262811 -0.16626,0.429078 -0.16091,0.166268 -0.42372,0.166268 h -2.11321 q -0.26281,0 -0.43444,-0.166268 -0.16627,-0.166267 -0.16627,-0.429078 v -2.1293 h 0.74553 v 2.064939 h 1.81285 v -2.000577 l -2.31702,-2.799735 q -0.24136,-0.289628 -0.24136,-0.638253 v -1.700223 q 0,-0.26281 0.16627,-0.429078 0.17163,-0.166267 0.43444,-0.166267 h 2.11321 q 0.26281,0 0.42372,0.166267 0.16626,0.166268 0.16626,0.429078 v 1.952306 h -0.74552 V 45.77424 h -1.81285 v 1.769947 l 2.32774,2.799735 q 0.23063,0.278901 0.23063,0.627527 z"
       style="font-style:normal;font-variant:normal;font-weight:bold;font-stretch:condensed;font-family:'Agency FB';-inkscape-font-specification:'Agency FB Bold Condensed';letter-spacing:8.0589px;fill:#ffffff;fill-opacity:1;stroke:none;stroke-width:0.304588;stroke-miterlimit:4;stroke-dasharray:none;stroke-opacity:1"
       id="path919" />
    <path
       d="m 228.2788,53.508373 h -2.75682 v -8.39384 h 2.72464 v 0.659707 h -1.97912 v 3.13227 h 1.80213 v 0.670435 h -1.80213 v 3.271721 h 2.0113 z"
       style="font-style:normal;font-variant:normal;font-weight:bold;font-stretch:condensed;font-family:'Agency FB';-inkscape-font-specification:'Agency FB Bold Condensed';letter-spacing:8.0589px;fill:#ffffff;fill-opacity:1;stroke:none;stroke-width:0.304588;stroke-miterlimit:4;stroke-dasharray:none;stroke-opacity:1"
       id="path921" />
  </g>
  <g
     aria-label="PHANTOM"
     id="g1357"
     style="font-style:normal;font-weight:normal;font-size:17.2116px;line-height:1.45;font-family:sans-serif;letter-spacing:6.3778px;word-spacing:0px;fill:#5dcef6;fill-opacity:1;stroke:#232a35;stroke-width:0.964201;stroke-linecap:square;stroke-linejoin:miter;stroke-miterlimit:4;stroke-dasharray:none;stroke-opacity:1;paint-order:markers stroke fill"
     transform="matrix(2.0873866,0,0,1.6127674,619.07118,4938.7054)">
    <g
       id="g1355"
       style="opacity:1;fill:#5dcef6;fill-opacity:1">
      <path
         style="color:#000000;font-style:normal;font-variant:normal;font-weight:normal;font-stretch:normal;font-size:medium;line-height:1.45;font-family:'Agency FB';-inkscape-font-specification:'Agency FB';font-variant-ligatures:normal;font-variant-position:normal;font-variant-caps:normal;font-variant-numeric:normal;font-variant-alternates:normal;font-variant-east-asian:normal;font-feature-settings:normal;font-variation-settings:normal;text-indent:0;text-align:start;text-decoration:none;text-decoration-line:none;text-decoration-style:solid;text-decoration-color:#000000;letter-spacing:6.3778px;word-spacing:0px;text-transform:none;writing-mode:lr-tb;direction:ltr;text-orientation:mixed;dominant-baseline:auto;baseline-shift:baseline;text-anchor:start;white-space:normal;shape-padding:0;shape-margin:0;inline-size:0;clip-rule:nonzero;display:inline;overflow:visible;visibility:visible;isolation:auto;mix-blend-mode:normal;color-interpolation:sRGB;color-interpolation-filters:linearRGB;solid-color:#000000;solid-opacity:1;vector-effect:none;fill:#5dcef6;fill-opacity:1;fill-rule:nonzero;stroke:none;stroke-width:0.964201;stroke-linecap:square;stroke-linejoin:miter;stroke-miterlimit:4;stroke-dasharray:none;stroke-dashoffset:0;stroke-opacity:1;paint-order:markers stroke fill;color-rendering:auto;image-rendering:auto;shape-rendering:auto;text-rendering:auto;enable-background:accumulate;stop-color:#000000;stop-opacity:1"
         d="m -233.59766,-3056.541 -2.42187,13.5918 v 0.5586 H -234 l 0.46289,-2.9258 h 1.78906 l 0.46289,2.9258 h 2.14649 l -0.10156,-0.5664 -2.39844,-13.584 z m -29.31445,0.033 v 14.1172 h 2.13281 v -5.2188 h 2.61914 c 0.37623,0 0.7502,-0.1388 1.01368,-0.4023 0.2663,-0.2663 0.41015,-0.642 0.41015,-1.0215 v -6.0606 c 0,-0.3779 -0.14565,-0.7518 -0.41406,-1.0136 -0.26332,-0.2614 -0.63508,-0.4004 -1.00977,-0.4004 z m 13.4375,0 v 14.1172 h 2.13281 v -6.3203 h 2.20313 v 6.3203 h 2.13281 v -0.4824 -13.6348 h -2.13281 v 5.7812 h -2.20313 v -5.7812 z m 27.24414,0 v 14.1172 h 2.06445 v -7.418 l 2.69336,7.418 h 1.62696 v -0.4824 -13.6348 h -2.06446 v 7.2422 l -2.625,-7.2422 z m 13.18555,0 v 1.998 h 2.05078 v 12.1192 h 2.13281 v -12.1192 h 2.03321 v -0.4824 -1.5156 z m 14.43164,0 c -0.37619,0 -0.75018,0.1389 -1.01367,0.4023 -0.26351,0.2635 -0.40039,0.6355 -0.40039,1.0117 v 11.2872 c 0,0.3762 0.13688,0.7502 0.40039,1.0136 0.26349,0.2635 0.63748,0.4024 1.01367,0.4024 h 3.68164 c 0.37469,0 0.74645,-0.139 1.00976,-0.4004 0.26843,-0.2619 0.41407,-0.6377 0.41407,-1.0156 v -11.2872 c 0,-0.3779 -0.14564,-0.7518 -0.41407,-1.0136 -0.26331,-0.2614 -0.63507,-0.4004 -1.00976,-0.4004 z m 12.62695,0 v 14.1172 h 2.06641 v -5.6934 l 1.17969,4.457 h 0.97851 l 1.17969,-4.457 v 5.6934 h 2.06445 v -0.4824 -13.6348 h -1.9414 l -1.79102,7.1797 -1.79297,-7.1797 z m -50.80273,0.9297 h 0.34179 l 0.27149,1.5429 h -0.88867 z m -29.15821,0.035 h 3.78711 c 0.0996,0 0.13645,0.042 0.19141,0.068 h -3.77539 v 6.8223 h 3.80078 c -0.0591,0.034 -0.10389,0.078 -0.2168,0.078 h -3.58398 v 5.2187 h -0.20313 z m 13.4375,0 h 0.20313 v 5.7813 h 4.13281 v -5.7813 h 0.20313 v 12.1875 h -0.20313 v -6.3203 h -4.13281 v 6.3203 h -0.20313 z m 27.24415,0 h 0.0527 l 3.33203,9.1875 0.93555,-0.166 v -9.0215 h 0.13672 v 12.1543 l -3.38477,-9.3222 -0.93555,0.164 v 9.1914 h -0.13671 z m 13.18554,0 h 4.28711 v 0.068 h -2.0332 v 12.1191 h -0.20313 v -12.1191 h -2.05078 z m 13.4668,0 h 3.68164 c 0.0992,0 0.13462,0.043 0.18945,0.068 h -4.0625 c 0.055,-0.026 0.0918,-0.068 0.19141,-0.068 z m 13.5918,0 h 0.2246 l 1.67383,6.6992 -0.93164,-3.5156 -0.94336,0.1895 c 0.0779,0.573 0.11328,0.9693 0.11328,0.9687 v 7.8457 h -0.13671 z m 5.31445,0 h 0.22656 v 12.1875 h -0.13672 v -7.8457 c 0,-0.01 0.0354,-0.4016 0.11328,-0.9687 l -0.94336,-0.1895 -0.9375,3.5391 z m -19.15235,0.088 v 12.0117 c -0.0224,-0.015 -0.0642,-0.01 -0.0859,-0.031 -0.0839,-0.084 -0.11914,-0.1592 -0.11914,-0.332 v -11.2872 c 0,-0.1728 0.0353,-0.2462 0.11914,-0.33 0.0217,-0.022 0.0636,-0.016 0.0859,-0.031 z m -63.04492,0 c 0.0196,0.014 0.0569,0.01 0.0762,0.027 h 0.002 0.002 c 0.0881,0.085 0.12305,0.1547 0.12305,0.3242 v 6.0606 c 0,0.1696 -0.0347,0.2476 -0.12695,0.3398 -0.0192,0.019 -0.0566,0.013 -0.0762,0.027 v -0.4688 z m 67.22657,0 c 0.0197,0.014 0.0568,0.01 0.0762,0.027 h 0.004 0.002 c 0.0881,0.085 0.12304,0.1547 0.12304,0.3242 v 11.2872 c 0,0.1695 -0.0349,0.2408 -0.12304,0.3261 h -0.002 -0.004 c -0.0193,0.019 -0.0565,0.013 -0.0762,0.027 v -0.4589 z m -70.10157,0.9414 h 1.91016 v 4.8926 h -1.91016 z m 66.88282,0 h 2.25586 v 10.1211 h -2.25586 z m -38.12891,1.3184 1.73633,9.8359 h -0.17383 l -0.46094,-2.9238 h -3.4375 l -0.46289,2.9238 h -0.14453 l 1.32617,-7.4394 -0.72265,4.4453 h 3.44335 l -0.0898,-0.5586 z m -0.61523,2.248 0.58789,3.6289 h -1.17774 z m 54.79882,3.8536 -0.4082,1.5449 -0.4043,-1.5235 z m -16.96679,3.664 h 4.07226 c -0.0558,0.028 -0.093,0.07 -0.19531,0.07 h -3.68164 c -0.10173,0 -0.1397,-0.043 -0.19531,-0.07 z"
         id="path1351" />
      <path
         style="color:#000000;font-style:normal;font-variant:normal;font-weight:normal;font-stretch:normal;font-size:medium;line-height:1.45;font-family:'Agency FB';-inkscape-font-specification:'Agency FB';font-variant-ligatures:normal;font-variant-position:normal;font-variant-caps:normal;font-variant-numeric:normal;font-variant-alternates:normal;font-variant-east-asian:normal;font-feature-settings:normal;font-variation-settings:normal;text-indent:0;text-align:start;text-decoration:none;text-decoration-line:none;text-decoration-style:solid;text-decoration-color:#000000;letter-spacing:6.3778px;word-spacing:0px;text-transform:none;writing-mode:lr-tb;direction:ltr;text-orientation:mixed;dominant-baseline:auto;baseline-shift:baseline;text-anchor:start;white-space:normal;shape-padding:0;shape-margin:0;inline-size:0;clip-rule:nonzero;display:inline;overflow:visible;visibility:visible;isolation:auto;mix-blend-mode:normal;color-interpolation:sRGB;color-interpolation-filters:linearRGB;solid-color:#000000;solid-opacity:1;vector-effect:none;fill:#5dcef6;fill-opacity:1;fill-rule:nonzero;stroke:none;stroke-width:0.964201;stroke-linecap:square;stroke-linejoin:miter;stroke-miterlimit:4;stroke-dasharray:none;stroke-dashoffset:0;stroke-opacity:1;paint-order:markers stroke fill;color-rendering:auto;image-rendering:auto;shape-rendering:auto;text-rendering:auto;enable-background:accumulate;stop-color:#000000;stop-opacity:1"
         d="m -174.9988,-3042.8733 h -1.10094 v -8.3285 c 0,-0.1176 0.0392,-0.4622 0.11766,-1.0337 l -2.15145,8.1268 h -0.23531 l -2.15145,-8.1268 c 0.0784,0.5771 0.11766,0.9217 0.11766,1.0337 v 8.3285 h -1.10094 v -13.1524 h 1.08413 l 2.13464,8.5554 c 0.0112,0.045 0.0224,0.1707 0.0336,0.3782 0,-0.084 0.0112,-0.2101 0.0336,-0.3782 l 2.13464,-8.5554 h 1.08413 z m -14.992,-0.9328 c 0,0.2745 -0.0897,0.4986 -0.26894,0.6723 -0.17368,0.1737 -0.39779,0.2605 -0.67232,0.2605 h -3.681 c -0.27453,0 -0.49864,-0.087 -0.67233,-0.2605 -0.17369,-0.1737 -0.26053,-0.3978 -0.26053,-0.6723 v -11.2868 c 0,-0.2745 0.0868,-0.4986 0.26053,-0.6723 0.17369,-0.1737 0.3978,-0.2605 0.67233,-0.2605 h 3.681 c 0.27453,0 0.49864,0.087 0.67232,0.2605 0.17929,0.1737 0.26894,0.3978 0.26894,0.6723 z m -1.16817,-0.1009 v -11.085 h -3.21878 v 11.085 z m -12.15142,-11.085 h -2.03379 v 12.1187 h -1.16817 v -12.1187 h -2.0506 v -1.0337 h 5.25256 z m -13.01704,12.1187 h -0.80679 l -3.51292,-9.6731 v 9.6731 h -1.10094 v -13.1524 h 0.87403 l 3.44568,9.505 v -9.505 h 1.10094 z m -13.38682,0 h -1.15976 l -0.46223,-2.9246 h -2.61368 l -0.46222,2.9246 h -1.12615 v -0.034 l 2.34474,-13.1524 h 1.15137 z m -1.77326,-3.9583 -1.15137,-7.1267 -1.15976,7.1267 z m -12.00015,3.9583 h -1.16817 v -6.3199 h -3.16835 v 6.3199 h -1.16817 v -13.1524 h 1.16817 v 5.782 h 3.16835 v -5.782 h 1.16817 z m -13.73139,-6.1602 c 0,0.2745 -0.0896,0.5014 -0.26893,0.6807 -0.17369,0.1737 -0.3978,0.2606 -0.67233,0.2606 h -3.10111 v 5.2189 h -1.16817 v -13.1524 h 4.26928 c 0.27453,0 0.49864,0.087 0.67233,0.2605 0.17929,0.1737 0.26893,0.3978 0.26893,0.6723 z m -1.16817,-0.1008 v -5.8577 h -2.8742 v 5.8577 z"
         id="path1353" />
    </g>
  </g>
</svg>
